<svg width="170" height="41" viewBox="0 0 170 41" fill="none" xmlns="http://www.w3.org/2000/svg">
<path d="M52 28H64V24.4336H56.2651V11H52V28Z" fill="white"/>
<path d="M70.4881 26.2177C68.8007 26.2177 67.9214 24.7306 67.9214 22.5C67.9214 20.2694 68.8007 18.7583 70.4881 18.7583C72.1755 18.7583 73.0786 20.2694 73.0786 22.5C73.0786 24.7306 72.1755 26.2177 70.4881 26.2177ZM70.5119 29C74.4333 29 77 26.1937 77 22.5C77 18.8063 74.4333 16 70.5119 16C66.6143 16 64 18.8063 64 22.5C64 26.1937 66.6143 29 70.5119 29Z" fill="white"/>
<path d="M84.058 32C85.8221 32 87.3772 31.5895 88.4217 30.6236C89.3733 29.7301 90 28.3778 90 26.5185V15.3622H86.3791V16.6903H86.3327C85.6364 15.652 84.5687 15 82.9903 15C80.0426 15 78 17.5597 78 21.1818C78 24.973 80.4836 27.0497 83.1528 27.0497C84.5919 27.0497 85.4971 26.446 86.1934 25.625H86.2863V26.8565C86.2863 28.3537 85.6132 29.223 84.0116 29.223C82.7582 29.223 82.1315 28.6676 81.9226 28.0156H78.2553C78.6267 30.5994 80.7853 32 84.058 32ZM84.0348 24.1278C82.619 24.1278 81.6905 22.9205 81.6905 21.0611C81.6905 19.1776 82.619 17.9702 84.0348 17.9702C85.6132 17.9702 86.4487 19.3707 86.4487 21.0369C86.4487 22.7756 85.6828 24.1278 84.0348 24.1278Z" fill="white"/>
<path d="M98.4881 26.2177C96.8007 26.2177 95.9214 24.7306 95.9214 22.5C95.9214 20.2694 96.8007 18.7583 98.4881 18.7583C100.176 18.7583 101.079 20.2694 101.079 22.5C101.079 24.7306 100.176 26.2177 98.4881 26.2177ZM98.5119 29C102.433 29 105 26.1937 105 22.5C105 18.8063 102.433 16 98.5119 16C94.6143 16 92 18.8063 92 22.5C92 26.1937 94.6143 29 98.5119 29Z" fill="white"/>
<path d="M106 28H110V15.8266H106V28ZM106 14.1385H110V11H106V14.1385Z" fill="white"/>
<path d="M111 32H114.976V26.5776H115.024C115.805 27.6279 116.951 28.2629 118.561 28.2629C121.829 28.2629 124 25.6738 124 21.6193C124 17.8578 121.976 15 118.659 15C116.951 15 115.732 15.7572 114.878 16.8807H114.805V15.3664H111V32ZM117.537 25.1853C115.829 25.1853 114.854 23.7931 114.854 21.7658C114.854 19.7385 115.732 18.1997 117.463 18.1997C119.171 18.1997 119.976 19.6164 119.976 21.7658C119.976 23.8908 119.049 25.1853 117.537 25.1853Z" fill="white"/>
<path d="M131.199 28C134.535 28 137 26.6114 137 23.93C137 20.7937 134.361 20.2431 132.12 19.884C130.502 19.5967 129.058 19.477 129.058 18.6151C129.058 17.849 129.83 17.4899 130.826 17.4899C131.946 17.4899 132.718 17.825 132.867 18.9263H136.602C136.403 16.5083 134.461 15 130.851 15C127.838 15 125.349 16.3407 125.349 18.9263C125.349 21.7993 127.714 22.3738 129.929 22.733C131.622 23.0203 133.166 23.14 133.166 24.2413C133.166 25.0313 132.394 25.4622 131.174 25.4622C129.83 25.4622 128.983 24.8637 128.834 23.6427H125C125.124 26.3481 127.465 28 131.199 28Z" fill="white"/>
<path d="M141.39 29C143.122 29 144.22 28.3093 145.122 27.0759H145.195V28.63H149V16H145.024V23.055C145.024 24.5598 144.195 25.5958 142.829 25.5958C141.561 25.5958 140.951 24.8311 140.951 23.4497V16H137V24.2884C137 27.1006 138.512 29 141.39 29Z" fill="white"/>
<path d="M151 28H154.896V20.9203C154.896 19.4156 155.613 18.3548 156.831 18.3548C158.003 18.3548 158.552 19.1442 158.552 20.5009V28H162.448V20.9203C162.448 19.4156 163.141 18.3548 164.384 18.3548C165.555 18.3548 166.104 19.1442 166.104 20.5009V28H170V19.7856C170 16.9488 168.614 15 165.842 15C164.264 15 162.95 15.6907 161.994 17.2201H161.946C161.325 15.8634 160.106 15 158.504 15C156.736 15 155.565 15.8634 154.8 17.1708H154.728V15.37H151V28Z" fill="white"/>
<path fill-rule="evenodd" clip-rule="evenodd" d="M21 40C32.0457 40 41 31.0457 41 20C41 8.95431 32.0457 0 21 0C9.95429 0 1 8.95431 1 20C1 31.0457 9.95429 40 21 40ZM27.2393 9.31684C27.543 8.23805 26.4961 7.60013 25.54 8.2813L12.1931 17.7896C11.1562 18.5283 11.3193 20 12.4381 20H15.9527V19.9728H22.8025L17.2212 21.9421L14.7607 30.6832C14.457 31.762 15.5038 32.3999 16.46 31.7187L29.8069 22.2105C30.8438 21.4718 30.6806 20 29.5619 20H24.2321L27.2393 9.31684Z" fill="white"/>
</svg>
