<svg width="171" height="41" viewBox="0 0 171 41" fill="none" xmlns="http://www.w3.org/2000/svg">
<g clip-path="url(#clip0_10_65)">
<path d="M51.5 29H63.5V25.4336H55.7651V12H51.5V29Z" fill="white"/>
<path d="M70.9881 27.2177C69.3007 27.2177 68.4214 25.7306 68.4214 23.5C68.4214 21.2694 69.3007 19.7583 70.9881 19.7583C72.6755 19.7583 73.5786 21.2694 73.5786 23.5C73.5786 25.7306 72.6755 27.2177 70.9881 27.2177ZM71.0119 30C74.9333 30 77.5 27.1937 77.5 23.5C77.5 19.8063 74.9333 17 71.0119 17C67.1143 17 64.5 19.8063 64.5 23.5C64.5 27.1937 67.1143 30 71.0119 30Z" fill="white"/>
<path d="M83.558 34C85.322 34 86.8772 33.5895 87.9217 32.6236C88.8733 31.7301 89.5 30.3778 89.5 28.5185V17.3622H85.8791V18.6903H85.8327C85.1364 17.652 84.0687 17 82.4903 17C79.5426 17 77.5 19.5597 77.5 23.1818C77.5 26.973 79.9836 29.0497 82.6528 29.0497C84.0919 29.0497 84.9971 28.446 85.6934 27.625H85.7863V28.8565C85.7863 30.3537 85.1132 31.223 83.5116 31.223C82.2582 31.223 81.6315 30.6676 81.4226 30.0156H77.7553C78.1267 32.5994 80.2853 34 83.558 34ZM83.5348 26.1278C82.119 26.1278 81.1905 24.9205 81.1905 23.0611C81.1905 21.1776 82.119 19.9702 83.5348 19.9702C85.1132 19.9702 85.9487 21.3707 85.9487 23.0369C85.9487 24.7756 85.1828 26.1278 83.5348 26.1278Z" fill="white"/>
<path d="M97.9883 27.2177C96.3009 27.2177 95.4215 25.7306 95.4215 23.5C95.4215 21.2694 96.3009 19.7583 97.9883 19.7583C99.6757 19.7583 100.578 21.2694 100.578 23.5C100.578 25.7306 99.6757 27.2177 97.9883 27.2177ZM98.0121 30C101.933 30 104.5 27.1937 104.5 23.5C104.5 19.8063 101.933 17 98.0121 17C94.1143 17 91.5 19.8063 91.5 23.5C91.5 27.1937 94.1143 30 98.0121 30Z" fill="white"/>
<path d="M105.5 29H109.5V16.8266H105.5V29ZM105.5 15.1385H109.5V12H105.5V15.1385Z" fill="white"/>
<path d="M111.5 34H115.476V28.5776H115.524C116.305 29.6279 117.451 30.2629 119.061 30.2629C122.329 30.2629 124.5 27.6738 124.5 23.6193C124.5 19.8578 122.476 17 119.159 17C117.451 17 116.232 17.7572 115.378 18.8807H115.305V17.3664H111.5V34ZM118.037 27.1853C116.329 27.1853 115.354 25.7931 115.354 23.7658C115.354 21.7385 116.232 20.1997 117.963 20.1997C119.671 20.1997 120.476 21.6164 120.476 23.7658C120.476 25.8908 119.549 27.1853 118.037 27.1853Z" fill="white"/>
<path d="M130.699 30C134.035 30 136.5 28.6114 136.5 25.93C136.5 22.7937 133.861 22.2431 131.62 21.884C130.002 21.5967 128.558 21.477 128.558 20.6151C128.558 19.849 129.33 19.4899 130.326 19.4899C131.446 19.4899 132.218 19.825 132.367 20.9263H136.102C135.902 18.5083 133.961 17 130.351 17C127.338 17 124.849 18.3407 124.849 20.9263C124.849 23.7993 127.214 24.3738 129.429 24.733C131.122 25.0203 132.666 25.14 132.666 26.2413C132.666 27.0313 131.894 27.4622 130.674 27.4622C129.33 27.4622 128.483 26.8637 128.334 25.6427H124.5C124.624 28.3481 126.965 30 130.699 30Z" fill="white"/>
<path d="M141.89 30C143.622 30 144.72 29.3093 145.622 28.0759H145.695V29.63H149.5V17H145.524V24.055C145.524 25.5598 144.695 26.5958 143.329 26.5958C142.061 26.5958 141.451 25.8311 141.451 24.4497V17H137.5V25.2884C137.5 28.1006 139.012 30 141.89 30Z" fill="white"/>
<path d="M150.5 30H154.396V22.9203C154.396 21.4156 155.113 20.3548 156.331 20.3548C157.503 20.3548 158.052 21.1442 158.052 22.5009V30H161.948V22.9203C161.948 21.4156 162.641 20.3548 163.884 20.3548C165.055 20.3548 165.604 21.1442 165.604 22.5009V30H169.5V21.7856C169.5 18.9488 168.114 17 165.342 17C163.764 17 162.45 17.6907 161.494 19.2201H161.446C160.825 17.8634 159.606 17 158.004 17C156.236 17 155.065 17.8634 154.3 19.1708H154.228V17.37H150.5V30Z" fill="white"/>
<path fill-rule="evenodd" clip-rule="evenodd" d="M20.5 40C31.5458 40 40.5 31.0457 40.5 20C40.5 8.9543 31.5458 0 20.5 0C9.45429 0 0.5 8.9543 0.5 20C0.5 31.0457 9.45429 40 20.5 40ZM23.587 15.4526C25.2918 13.7477 25.2918 10.9836 23.587 9.27866C21.8821 7.57378 19.118 7.57378 17.4131 9.27866C15.7083 10.9836 15.7083 13.7477 17.4131 15.4526L20.5 18.5395L23.587 15.4526ZM25.0475 23.087C26.7524 24.7919 29.5165 24.7919 31.2214 23.087C32.9262 21.3821 32.9262 18.618 31.2214 16.9131C29.5165 15.2083 26.7524 15.2083 25.0475 16.9131L21.9606 20.0001L25.0475 23.087ZM23.587 30.7214C25.2918 29.0165 25.2918 26.2524 23.587 24.5475L20.5 21.4606L17.4131 24.5475C15.7083 26.2524 15.7083 29.0165 17.4131 30.7214C19.118 32.4263 21.8821 32.4263 23.587 30.7214ZM9.77863 23.087C8.07379 21.3821 8.07379 18.618 9.77863 16.9131C11.4836 15.2083 14.2477 15.2083 15.9526 16.9131L19.0395 20.0001L15.9526 23.087C14.2477 24.7919 11.4836 24.7919 9.77863 23.087Z" fill="white"/>
</g>
<defs>
<clipPath id="clip0_10_65">
<rect width="170" height="41" fill="white" transform="translate(0.5)"/>
</clipPath>
</defs>
</svg>
