<svg width="169" height="41" viewBox="0 0 169 41" fill="none" xmlns="http://www.w3.org/2000/svg">
<g clip-path="url(#clip0_10_49)">
<path d="M49.75 29H61.75V25.4336H54.0151V12H49.75V29Z" fill="white"/>
<path d="M69.2381 26.2177C67.5507 26.2177 66.6714 24.7306 66.6714 22.5C66.6714 20.2694 67.5507 18.7583 69.2381 18.7583C70.9255 18.7583 71.8286 20.2694 71.8286 22.5C71.8286 24.7306 70.9255 26.2177 69.2381 26.2177ZM69.2619 29C73.1833 29 75.75 26.1937 75.75 22.5C75.75 18.8063 73.1833 16 69.2619 16C65.3643 16 62.75 18.8063 62.75 22.5C62.75 26.1937 65.3643 29 69.2619 29Z" fill="white"/>
<path d="M81.808 33C83.572 33 85.1272 32.5895 86.1717 31.6236C87.1233 30.7301 87.75 29.3778 87.75 27.5185V16.3622H84.1291V17.6903H84.0827C83.3864 16.652 82.3187 16 80.7403 16C77.7926 16 75.75 18.5597 75.75 22.1818C75.75 25.973 78.2336 28.0497 80.9028 28.0497C82.3419 28.0497 83.2471 27.446 83.9434 26.625H84.0363V27.8565C84.0363 29.3537 83.3632 30.223 81.7616 30.223C80.5082 30.223 79.8815 29.6676 79.6726 29.0156H76.0053C76.3767 31.5994 78.5353 33 81.808 33ZM81.7848 25.1278C80.369 25.1278 79.4405 23.9205 79.4405 22.0611C79.4405 20.1776 80.369 18.9702 81.7848 18.9702C83.3632 18.9702 84.1987 20.3707 84.1987 22.0369C84.1987 23.7756 83.4328 25.1278 81.7848 25.1278Z" fill="white"/>
<path d="M96.2384 26.2177C94.5509 26.2177 93.6715 24.7306 93.6715 22.5C93.6715 20.2694 94.5509 18.7583 96.2384 18.7583C97.9258 18.7583 98.829 20.2694 98.829 22.5C98.829 24.7306 97.9258 26.2177 96.2384 26.2177ZM96.2621 29C100.184 29 102.75 26.1937 102.75 22.5C102.75 18.8063 100.184 16 96.2621 16C92.3644 16 89.75 18.8063 89.75 22.5C89.75 26.1937 92.3644 29 96.2621 29Z" fill="white"/>
<path d="M103.75 29H107.75V16.8266H103.75V29ZM103.75 15.1385H107.75V12H103.75V15.1385Z" fill="white"/>
<path d="M109.75 33H113.726V27.5776H113.774C114.555 28.6279 115.701 29.2629 117.311 29.2629C120.579 29.2629 122.75 26.6738 122.75 22.6193C122.75 18.8578 120.726 16 117.409 16C115.701 16 114.482 16.7572 113.628 17.8807H113.555V16.3664H109.75V33ZM116.287 26.1853C114.579 26.1853 113.604 24.7931 113.604 22.7658C113.604 20.7385 114.482 19.1997 116.213 19.1997C117.921 19.1997 118.726 20.6164 118.726 22.7658C118.726 24.8908 117.799 26.1853 116.287 26.1853Z" fill="white"/>
<path d="M128.949 29C132.285 29 134.75 27.6114 134.75 24.93C134.75 21.7937 132.111 21.2431 129.87 20.884C128.252 20.5967 126.808 20.477 126.808 19.6151C126.808 18.849 127.58 18.4899 128.576 18.4899C129.696 18.4899 130.468 18.825 130.617 19.9263H134.352C134.152 17.5083 132.211 16 128.601 16C125.588 16 123.099 17.3407 123.099 19.9263C123.099 22.7993 125.464 23.3738 127.679 23.733C129.372 24.0203 130.916 24.14 130.916 25.2413C130.916 26.0313 130.144 26.4622 128.924 26.4622C127.58 26.4622 126.733 25.8637 126.584 24.6427H122.75C122.874 27.3481 125.215 29 128.949 29Z" fill="white"/>
<path d="M140.14 30C141.872 30 142.97 29.3093 143.872 28.0759H143.945V29.63H147.75V17H143.774V24.055C143.774 25.5598 142.945 26.5958 141.579 26.5958C140.311 26.5958 139.701 25.8311 139.701 24.4497V17H135.75V25.2884C135.75 28.1006 137.262 30 140.14 30Z" fill="white"/>
<path d="M148.75 29H152.646V21.9203C152.646 20.4156 153.363 19.3548 154.581 19.3548C155.753 19.3548 156.302 20.1442 156.302 21.5009V29H160.198V21.9203C160.198 20.4156 160.891 19.3548 162.134 19.3548C163.305 19.3548 163.854 20.1442 163.854 21.5009V29H167.75V20.7856C167.75 17.9488 166.364 16 163.592 16C162.014 16 160.7 16.6907 159.744 18.2201H159.696C159.075 16.8634 157.856 16 156.254 16C154.486 16 153.315 16.8634 152.55 18.1708H152.478V16.37H148.75V29Z" fill="white"/>
<path d="M25.928 2.04957L21.9816 1L18.6559 13.3192L15.6534 2.19734L11.7069 3.24691L14.951 15.2632L6.87087 7.24344L3.98187 10.1109L12.8447 18.9077L1.80745 15.9723L0.75 19.8893L12.8096 23.0966C12.6715 22.5055 12.5985 21.8896 12.5985 21.2568C12.5985 16.7775 16.2569 13.1464 20.7698 13.1464C25.2828 13.1464 28.9412 16.7775 28.9412 21.2568C28.9412 21.8855 28.869 22.4976 28.7327 23.0852L39.6926 26L40.75 22.083L28.6425 18.863L39.6805 15.9274L38.623 12.0104L26.5159 15.2303L34.596 7.21051L31.707 4.34305L22.9671 13.0178L25.928 2.04957Z" fill="white"/>
<path d="M28.8149 23C28.4712 24.469 27.7456 25.7887 26.75 26.846L34.8154 35L37.75 32.0332L28.8149 23Z" fill="white"/>
<path d="M26.4891 27C25.4733 28.0177 24.1896 28.7772 22.75 29.1686L25.7087 40L29.75 38.9377L26.4891 27Z" fill="white"/>
<path d="M22.75 29.0376C22.108 29.2074 21.4351 29.2976 20.7417 29.2976C19.9988 29.2976 19.2794 29.194 18.5964 29L15.75 39.9292L19.6344 41L22.75 29.0376Z" fill="white"/>
<path d="M18.75 29.2213C17.3114 28.8066 16.0318 28.0302 15.0219 27L6.75 35.0707L9.75239 38L18.75 29.2213Z" fill="white"/>
<path d="M14.75 26.7563C13.7933 25.7179 13.0964 24.4303 12.7647 23L1.75 25.9922L2.80927 30L14.75 26.7563Z" fill="white"/>
</g>
<defs>
<clipPath id="clip0_10_49">
<rect width="168" height="41" fill="white" transform="translate(0.75)"/>
</clipPath>
</defs>
</svg>
