<svg width="168" height="41" viewBox="0 0 168 41" fill="none" xmlns="http://www.w3.org/2000/svg">
<g clip-path="url(#clip0_10_76)">
<path d="M49.25 29H61.25V25.4336H53.5151V12H49.25V29Z" fill="white"/>
<path d="M67.7381 26.2177C66.0507 26.2177 65.1714 24.7306 65.1714 22.5C65.1714 20.2694 66.0507 18.7583 67.7381 18.7583C69.4255 18.7583 70.3286 20.2694 70.3286 22.5C70.3286 24.7306 69.4255 26.2177 67.7381 26.2177ZM67.7619 29C71.6833 29 74.25 26.1937 74.25 22.5C74.25 18.8063 71.6833 16 67.7619 16C63.8643 16 61.25 18.8063 61.25 22.5C61.25 26.1937 63.8643 29 67.7619 29Z" fill="white"/>
<path d="M81.308 33C83.0721 33 84.6272 32.5895 85.6717 31.6236C86.6233 30.7301 87.25 29.3778 87.25 27.5185V16.3622H83.6291V17.6903H83.5827C82.8864 16.652 81.8187 16 80.2403 16C77.2926 16 75.25 18.5597 75.25 22.1818C75.25 25.973 77.7336 28.0497 80.4028 28.0497C81.8419 28.0497 82.7471 27.446 83.4434 26.625H83.5363V27.8565C83.5363 29.3537 82.8632 30.223 81.2616 30.223C80.0082 30.223 79.3815 29.6676 79.1726 29.0156H75.5053C75.8767 31.5994 78.0353 33 81.308 33ZM81.2848 25.1278C79.869 25.1278 78.9405 23.9205 78.9405 22.0611C78.9405 20.1776 79.869 18.9702 81.2848 18.9702C82.8632 18.9702 83.6987 20.3707 83.6987 22.0369C83.6987 23.7756 82.9328 25.1278 81.2848 25.1278Z" fill="white"/>
<path d="M94.738 26.2177C93.0506 26.2177 92.1713 24.7306 92.1713 22.5C92.1713 20.2694 93.0506 18.7583 94.738 18.7583C96.4253 18.7583 97.3284 20.2694 97.3284 22.5C97.3284 24.7306 96.4253 26.2177 94.738 26.2177ZM94.7617 29C98.683 29 101.25 26.1937 101.25 22.5C101.25 18.8063 98.683 16 94.7617 16C90.8642 16 88.25 18.8063 88.25 22.5C88.25 26.1937 90.8642 29 94.7617 29Z" fill="white"/>
<path d="M103.25 29H107.25V16.8266H103.25V29ZM103.25 15.1385H107.25V12H103.25V15.1385Z" fill="white"/>
<path d="M108.25 33H112.226V27.5776H112.274C113.055 28.6279 114.201 29.2629 115.811 29.2629C119.079 29.2629 121.25 26.6738 121.25 22.6193C121.25 18.8578 119.226 16 115.909 16C114.201 16 112.982 16.7572 112.128 17.8807H112.055V16.3664H108.25V33ZM114.787 26.1853C113.079 26.1853 112.104 24.7931 112.104 22.7658C112.104 20.7385 112.982 19.1997 114.713 19.1997C116.421 19.1997 117.226 20.6164 117.226 22.7658C117.226 24.8908 116.299 26.1853 114.787 26.1853Z" fill="white"/>
<path d="M127.449 29C130.785 29 133.25 27.6114 133.25 24.93C133.25 21.7937 130.611 21.2431 128.37 20.884C126.752 20.5967 125.308 20.477 125.308 19.6151C125.308 18.849 126.08 18.4899 127.076 18.4899C128.196 18.4899 128.968 18.825 129.117 19.9263H132.852C132.652 17.5083 130.711 16 127.101 16C124.088 16 121.599 17.3407 121.599 19.9263C121.599 22.7993 123.964 23.3738 126.179 23.733C127.872 24.0203 129.416 24.14 129.416 25.2413C129.416 26.0313 128.644 26.4622 127.424 26.4622C126.08 26.4622 125.233 25.8637 125.084 24.6427H121.25C121.374 27.3481 123.715 29 127.449 29Z" fill="white"/>
<path d="M138.64 30C140.372 30 141.47 29.3093 142.372 28.0759H142.445V29.63H146.25V17H142.274V24.055C142.274 25.5598 141.445 26.5958 140.079 26.5958C138.811 26.5958 138.201 25.8311 138.201 24.4497V17H134.25V25.2884C134.25 28.1006 135.762 30 138.64 30Z" fill="white"/>
<path d="M148.25 29H152.146V21.9203C152.146 20.4156 152.863 19.3548 154.081 19.3548C155.253 19.3548 155.802 20.1442 155.802 21.5009V29H159.698V21.9203C159.698 20.4156 160.391 19.3548 161.634 19.3548C162.805 19.3548 163.354 20.1442 163.354 21.5009V29H167.25V20.7856C167.25 17.9488 165.864 16 163.092 16C161.514 16 160.2 16.6907 159.244 18.2201H159.196C158.575 16.8634 157.356 16 155.754 16C153.986 16 152.815 16.8634 152.05 18.1708H151.978V16.37H148.25V29Z" fill="white"/>
<path fill-rule="evenodd" clip-rule="evenodd" d="M8.80273 3.59787C7.37207 4.59823 6.07837 5.78098 4.95532 7.1124C9.54462 6.68633 15.3752 7.38204 22.1444 10.7667C29.373 14.3809 35.1938 14.5031 39.2448 13.7217C38.8772 12.6088 38.4144 11.5392 37.8663 10.5224C33.229 11.0115 27.284 10.3641 20.3556 6.89998C15.956 4.70018 12.0778 3.79401 8.80273 3.59787ZM35.1574 6.66665C31.4953 2.575 26.1734 0 20.25 0C18.5105 0 16.8227 0.222107 15.2137 0.63948C17.3929 1.23409 19.7079 2.10399 22.1444 3.32227C27.217 5.85853 31.5964 6.67516 35.1574 6.66665ZM40.1109 17.6281C35.2169 18.5945 28.4588 18.396 20.3556 14.3444C12.78 10.5566 6.75043 10.6043 2.6839 11.508C2.474 11.5546 2.26904 11.6036 2.06903 11.6546C1.53662 12.8125 1.11163 14.0301 0.806702 15.2945C1.13239 15.2075 1.46893 15.1248 1.81616 15.0476C6.74957 13.9513 13.7201 13.9989 22.1444 18.2111C29.7201 21.9989 35.7496 21.9512 39.8162 21.0475C39.9555 21.0166 40.0928 20.9846 40.2278 20.9516C40.2426 20.6363 40.25 20.319 40.25 20C40.25 19.1975 40.2028 18.406 40.1109 17.6281ZM39.5748 25.1723C34.7283 26.0196 28.167 25.6944 20.3556 21.7888C12.78 18.001 6.75043 18.0487 2.6839 18.9524C1.78125 19.1529 0.969239 19.3972 0.25293 19.6551C0.250977 19.7698 0.25 19.8848 0.25 20C0.25 31.0457 9.20429 40 20.25 40C29.5071 40 37.2953 33.7109 39.5748 25.1723Z" fill="white"/>
</g>
<defs>
<clipPath id="clip0_10_76">
<rect width="167" height="41" fill="white" transform="translate(0.25)"/>
</clipPath>
</defs>
</svg>
