<svg width="202" height="40" viewBox="0 0 202 40" fill="none" xmlns="http://www.w3.org/2000/svg">
<g clip-path="url(#clip0_10_36)">
<path fill-rule="evenodd" clip-rule="evenodd" d="M25.5557 11.6853C23.9112 10.5865 21.9778 10 20 10V0C23.9556 0 27.8224 1.17298 31.1114 3.37061C34.4004 5.56823 36.9638 8.69181 38.4776 12.3463C39.9913 16.0008 40.3874 20.0222 39.6157 23.9018C38.844 27.7814 36.9392 31.3451 34.1421 34.1421C31.3451 36.9392 27.7814 38.844 23.9018 39.6157C20.0222 40.3874 16.0008 39.9913 12.3463 38.4776C8.6918 36.9638 5.56823 34.4004 3.37061 31.1114C1.17298 27.8224 0 23.9556 0 20H10C10 21.9778 10.5865 23.9112 11.6853 25.5557C12.7841 27.2002 14.3459 28.4819 16.1732 29.2388C18.0004 29.9957 20.0111 30.1937 21.9509 29.8078C23.8907 29.422 25.6725 28.4696 27.0711 27.0711C28.4696 25.6725 29.422 23.8907 29.8078 21.9509C30.1937 20.0111 29.9957 18.0004 29.2388 16.1732C28.4819 14.3459 27.2002 12.7841 25.5557 11.6853Z" fill="white"/>
<path fill-rule="evenodd" clip-rule="evenodd" d="M9.99999 5.28493e-06C9.99999 1.31322 9.74134 2.61358 9.23879 3.82684C8.73624 5.04009 7.99965 6.14248 7.07106 7.07107C6.14248 7.99966 5.04009 8.73625 3.82683 9.2388C2.61357 9.74134 1.31321 10 4.3711e-07 10L0 20C2.62643 20 5.22715 19.4827 7.65367 18.4776C10.0802 17.4725 12.285 15.9993 14.1421 14.1421C15.9993 12.285 17.4725 10.0802 18.4776 7.65367C19.4827 5.22715 20 2.62643 20 0L9.99999 5.28493e-06Z" fill="white"/>
<path d="M126 14H121V29H126V14Z" fill="white"/>
<path d="M121.697 11.2857C122.182 11.7619 122.788 12 123.515 12C124.242 12 124.838 11.7619 125.303 11.2857C125.768 10.7897 126 10.1944 126 9.5C126 8.78573 125.768 8.19047 125.303 7.71429C124.838 7.23809 124.242 7 123.515 7C122.788 7 122.182 7.23809 121.697 7.71429C121.232 8.19047 121 8.78573 121 9.5C121 10.1944 121.232 10.7897 121.697 11.2857Z" fill="white"/>
<path d="M51 29V7H56.0106V24.6998H66V29H51Z" fill="white"/>
<path fill-rule="evenodd" clip-rule="evenodd" d="M75.4999 30C73.9022 30 72.4536 29.6536 71.1541 28.9606C69.8759 28.2468 68.864 27.2809 68.1184 26.063C67.3728 24.8451 67 23.4803 67 21.9685C67 20.4567 67.3728 19.1024 68.1184 17.9055C68.864 16.7087 69.8759 15.7638 71.1541 15.0709C72.4323 14.3569 73.881 14 75.4999 14C77.119 14 78.5676 14.3465 79.8458 15.0394C81.124 15.7323 82.136 16.6877 82.8815 17.9055C83.6272 19.1024 84 20.4567 84 21.9685C84 23.4803 83.6272 24.8451 82.8815 26.063C82.136 27.2809 81.124 28.2468 79.8458 28.9606C78.5676 29.6536 77.119 30 75.4999 30ZM75.4999 25.6221C76.203 25.6221 76.8208 25.4751 77.3534 25.1811C77.8859 24.8662 78.2907 24.4358 78.5676 23.8898C78.8659 23.3229 79.015 22.6824 79.015 21.9685C79.015 21.2546 78.8659 20.6352 78.5676 20.1103C78.2693 19.5643 77.854 19.1444 77.3214 18.8505C76.8101 18.5354 76.203 18.378 75.4999 18.378C74.8183 18.378 74.2112 18.5354 73.6785 18.8505C73.146 19.1444 72.7306 19.5643 72.4323 20.1103C72.134 20.6562 71.985 21.2861 71.985 22C71.985 22.6929 72.134 23.3229 72.4323 23.8898C72.7306 24.4358 73.146 24.8662 73.6785 25.1811C74.2112 25.4751 74.8183 25.6221 75.4999 25.6221Z" fill="white"/>
<path fill-rule="evenodd" clip-rule="evenodd" d="M87.055 36.0981C88.3358 36.6993 89.8161 37 91.4959 37C93.1336 37 94.5929 36.6671 95.8737 36.0014C97.1545 35.3357 98.1623 34.4123 98.8972 33.2312C99.632 32.05 100 30.6541 100 29.0434V14.3222H95.2752V15.374C94.9238 15.0715 94.5248 14.8176 94.0785 14.6121C93.2595 14.2041 92.3252 14 91.2754 14C89.8686 14 88.6192 14.3436 87.5275 15.0308C86.4355 15.6965 85.5747 16.62 84.9448 17.8011C84.3148 18.9608 84 20.2708 84 21.7312C84 23.17 84.3148 24.48 84.9448 25.6611C85.5747 26.8422 86.4355 27.7765 87.5275 28.4636C88.6192 29.1508 89.8686 29.4944 91.2754 29.4944C92.3042 29.4944 93.2386 29.2905 94.0785 28.8824C94.4853 28.6848 94.8527 28.4518 95.1808 28.1836V29.1723C95.1808 30.2675 94.8343 31.1158 94.1414 31.7172C93.4696 32.3185 92.5352 32.6191 91.3384 32.6191C90.3725 32.6191 89.5432 32.4473 88.8502 32.1037C88.1784 31.7601 87.5694 31.2554 87.0234 30.5896L84.063 33.6177C84.7978 34.6914 85.7952 35.5183 87.055 36.0981ZM93.9209 24.6625C93.438 24.9632 92.8607 25.1135 92.1887 25.1135C91.5168 25.1135 90.9289 24.9632 90.425 24.6625C89.942 24.3618 89.5641 23.9538 89.2912 23.4384C89.0182 22.9015 88.8817 22.3324 88.8817 21.7312C88.8817 21.0869 89.0182 20.5071 89.2912 19.9917C89.5641 19.4762 89.9525 19.0682 90.4565 18.7675C90.9604 18.4669 91.5378 18.3165 92.1887 18.3165C92.8607 18.3165 93.438 18.4669 93.9209 18.7675C94.4249 19.0682 94.8028 19.4762 95.0548 19.9917C95.3277 20.5071 95.4642 21.0869 95.4642 21.7312C95.4642 22.3754 95.3277 22.9552 95.0548 23.4706C94.8028 23.9646 94.4249 24.3618 93.9209 24.6625Z" fill="white"/>
<path fill-rule="evenodd" clip-rule="evenodd" d="M110.501 30C108.902 30 107.453 29.6536 106.155 28.9606C104.876 28.2468 103.864 27.2809 103.118 26.063C102.373 24.8451 102 23.4803 102 21.9685C102 20.4567 102.373 19.1024 103.118 17.9055C103.864 16.7087 104.876 15.7638 106.155 15.0709C107.432 14.3569 108.881 14 110.501 14C112.119 14 113.568 14.3465 114.845 15.0394C116.124 15.7323 117.136 16.6877 117.882 17.9055C118.627 19.1024 119 20.4567 119 21.9685C119 23.4803 118.627 24.8451 117.882 26.063C117.136 27.2809 116.124 28.2468 114.845 28.9606C113.568 29.6536 112.119 30 110.501 30ZM110.501 25.6221C111.203 25.6221 111.821 25.4751 112.354 25.1811C112.886 24.8662 113.291 24.4358 113.568 23.8898C113.866 23.3229 114.015 22.6824 114.015 21.9685C114.015 21.2546 113.866 20.6352 113.568 20.1103C113.27 19.5643 112.854 19.1444 112.321 18.8505C111.81 18.5354 111.203 18.378 110.501 18.378C109.818 18.378 109.211 18.5354 108.679 18.8505C108.146 19.1444 107.73 19.5643 107.432 20.1103C107.134 20.6562 106.985 21.2861 106.985 22C106.985 22.6929 107.134 23.3229 107.432 23.8898C107.73 24.4358 108.146 24.8662 108.679 25.1811C109.211 25.4751 109.818 25.6221 110.501 25.6221Z" fill="white"/>
<path fill-rule="evenodd" clip-rule="evenodd" d="M136.665 29.8801C135.655 29.8801 134.726 29.6814 133.88 29.2839C133.435 29.0747 133.033 28.8249 132.674 28.5346V36H128V14.3139H132.735V15.3666C133.079 15.0817 133.46 14.8353 133.88 14.6277C134.726 14.2092 135.655 14 136.665 14C138.089 14 139.348 14.3453 140.441 15.0357C141.555 15.7261 142.422 16.6676 143.041 17.8602C143.681 19.0528 144 20.4128 144 21.9401C144 23.4675 143.681 24.8274 143.041 26.02C142.422 27.2126 141.555 28.154 140.441 28.8445C139.348 29.535 138.089 29.8801 136.665 29.8801ZM135.799 25.5492C136.48 25.5492 137.068 25.3923 137.563 25.0785C138.079 24.7647 138.481 24.3357 138.77 23.7918C139.059 23.2478 139.203 22.6305 139.203 21.9401C139.203 21.2287 139.059 20.6011 138.77 20.0571C138.481 19.5131 138.079 19.0947 137.563 18.8018C137.068 18.4879 136.49 18.331 135.83 18.331C135.17 18.331 134.582 18.4879 134.066 18.8018C133.57 19.0947 133.179 19.5131 132.89 20.0571C132.601 20.6011 132.457 21.2287 132.457 21.9401C132.457 22.6305 132.591 23.2478 132.859 23.7918C133.148 24.3357 133.55 24.7647 134.066 25.0785C134.582 25.3923 135.159 25.5492 135.799 25.5492Z" fill="white"/>
<path d="M149.461 29.6563C150.373 29.8855 151.295 30 152.228 30C154.203 30 155.766 29.5626 156.917 28.6875C158.088 27.8126 158.675 26.6355 158.675 25.1563C158.675 24.198 158.491 23.4271 158.121 22.8438C157.753 22.2397 157.275 21.7604 156.689 21.4063C156.103 21.0521 155.484 20.7708 154.833 20.5625C154.182 20.3542 153.563 20.1771 152.977 20.0312C152.391 19.8854 151.914 19.7188 151.544 19.5312C151.176 19.3437 150.991 19.0937 150.991 18.7812C150.991 18.4896 151.132 18.2708 151.414 18.125C151.696 17.9583 152.119 17.875 152.684 17.875C153.27 17.875 153.867 17.9896 154.474 18.2188C155.104 18.4479 155.668 18.8438 156.167 19.4063L159 16.6563C158.284 15.7812 157.351 15.125 156.2 14.6875C155.072 14.2292 153.835 14 152.489 14C151.208 14 150.09 14.2083 149.136 14.625C148.18 15.0417 147.441 15.6146 146.921 16.3437C146.4 17.052 146.14 17.8958 146.14 18.875C146.14 19.7917 146.324 20.5521 146.693 21.1563C147.062 21.7396 147.54 22.198 148.125 22.5312C148.711 22.8646 149.331 23.125 149.982 23.3125C150.632 23.5 151.252 23.6771 151.838 23.8438C152.423 23.9897 152.901 24.1667 153.27 24.375C153.661 24.5626 153.856 24.8438 153.856 25.2188C153.856 25.5104 153.693 25.7396 153.368 25.9063C153.064 26.0729 152.619 26.1563 152.033 26.1563C151.186 26.1563 150.405 26.0104 149.689 25.7188C148.972 25.4063 148.353 24.9792 147.833 24.4375L145 27.1875C145.543 27.75 146.194 28.2501 146.954 28.6875C147.735 29.1042 148.571 29.4271 149.461 29.6563Z" fill="white"/>
<path d="M167.015 30C165.641 30 164.421 29.7103 163.354 29.1308C162.307 28.5298 161.487 27.7143 160.893 26.6841C160.297 25.6325 160 24.4306 160 23.0785V14H164.708V23.0141C164.708 23.5506 164.789 24.0121 164.954 24.3984C165.139 24.7847 165.405 25.0852 165.754 25.2998C166.103 25.5144 166.523 25.6217 167.015 25.6217C167.713 25.6217 168.267 25.3964 168.677 24.9456C169.088 24.4735 169.292 23.8297 169.292 23.0141V14H174V23.0463C174 24.4199 173.703 25.6325 173.107 26.6841C172.513 27.7143 171.693 28.5298 170.646 29.1308C169.6 29.7103 168.39 30 167.015 30Z" fill="white"/>
<path d="M181.935 14.3227H177V30H181.935V20.8387C181.935 20.3011 182.043 19.8495 182.258 19.4839C182.495 19.1183 182.807 18.8387 183.194 18.6452C183.581 18.4301 184.022 18.3226 184.516 18.3226C185.226 18.3226 185.817 18.5484 186.29 19C186.785 19.4301 187.032 20.0431 187.032 20.8387V30H191.968V20.8387C191.968 20.3011 192.075 19.8495 192.29 19.4839C192.527 19.1183 192.838 18.8387 193.226 18.6452C193.612 18.4301 194.054 18.3226 194.548 18.3226C195.258 18.3226 195.849 18.5484 196.322 19C196.817 19.4301 197.064 20.0431 197.064 20.8387V30H202V20.2903C202 18.9786 201.72 17.8603 201.161 16.9355C200.623 15.9892 199.881 15.2689 198.935 14.7743C198.011 14.2581 196.946 14 195.741 14C194.516 14 193.408 14.2688 192.419 14.8065C191.776 15.149 191.215 15.5911 190.734 16.1327C190.285 15.5662 189.74 15.1026 189.096 14.7419C188.237 14.2474 187.258 14 186.162 14C185 14 183.957 14.2474 183.033 14.7419C182.63 14.9477 182.265 15.1942 181.935 15.4813V14.3227Z" fill="white"/>
</g>
<defs>
<clipPath id="clip0_10_36">
<rect width="202" height="40" fill="white"/>
</clipPath>
</defs>
</svg>
