<?xml version="1.0" encoding="UTF-8" ?>
<!DOCTYPE svg PUBLIC "-//W3C//DTD SVG 1.1//EN" "http://www.w3.org/Graphics/SVG/1.1/DTD/svg11.dtd">
<svg width="360pt" height="130pt" viewBox="0 0 360 130" version="1.1" xmlns="http://www.w3.org/2000/svg">
<g id="g-ffffffff">
</g>
<g id="g-181a5cff">
<path fill="#181a5c" opacity="1.00" d=" M 40.63 7.55 C 53.02 5.77 66.64 8.26 76.18 16.80 C 82.76 22.49 86.46 30.81 87.54 39.34 C 81.14 39.36 74.74 39.34 68.35 39.35 C 66.90 31.69 60.46 25.60 52.90 24.07 C 46.47 22.85 39.30 23.97 34.10 28.13 C 29.79 31.44 27.12 36.45 25.61 41.58 C 23.52 49.13 23.32 57.22 25.10 64.85 C 26.39 70.16 28.85 75.36 32.97 79.05 C 39.37 84.72 49.01 85.84 56.88 82.93 C 64.32 79.91 67.97 71.86 69.03 64.36 C 75.44 64.36 81.84 64.34 88.25 64.37 C 87.28 74.02 83.72 83.77 76.54 90.54 C 69.09 97.93 58.30 101.04 48.00 100.90 C 37.17 100.97 26.08 97.37 18.14 89.85 C 8.58 81.04 4.01 67.81 4.05 55.00 C 3.84 43.20 7.14 31.01 14.82 21.86 C 21.16 13.99 30.69 9.03 40.63 7.55 Z" />
<path fill="#181a5c" opacity="1.00" d=" M 168.22 9.16 C 174.23 9.22 180.24 9.14 186.26 9.20 C 186.21 14.08 186.24 18.96 186.22 23.84 C 180.22 23.81 174.23 23.83 168.23 23.83 C 168.23 18.94 168.26 14.05 168.22 9.16 Z" />
<path fill="#181a5c" opacity="1.00" d=" M 263.95 9.18 C 269.94 9.17 275.93 9.18 281.93 9.17 C 281.96 14.06 281.90 18.96 281.96 23.85 C 275.99 23.80 270.02 23.81 264.05 23.84 C 264.13 18.95 263.91 14.07 263.95 9.18 Z" />
<path fill="#181a5c" opacity="1.00" d=" M 101.88 40.88 C 107.24 35.06 115.35 32.92 122.99 32.35 C 128.89 32.00 134.87 32.23 140.67 33.45 C 145.94 34.58 151.11 37.34 154.11 41.97 C 156.19 45.23 156.22 49.27 156.26 53.01 C 156.21 63.00 156.25 73.00 156.23 83.00 C 156.29 88.33 156.23 93.85 158.28 98.88 C 152.20 98.90 146.13 98.88 140.05 98.88 C 139.65 96.87 139.27 94.85 138.91 92.83 C 132.39 99.27 122.70 101.00 113.87 100.41 C 107.05 99.96 99.69 96.84 96.61 90.36 C 92.92 82.37 94.13 71.13 102.05 66.10 C 110.88 60.76 121.64 61.47 131.41 59.35 C 133.95 58.65 137.19 57.79 138.02 54.92 C 138.62 51.93 138.09 48.37 135.65 46.32 C 133.53 44.60 130.68 44.25 128.05 44.14 C 124.49 44.04 120.57 44.31 117.77 46.77 C 115.55 48.45 115.24 51.40 114.53 53.89 C 108.55 53.90 102.57 53.89 96.60 53.86 C 97.09 49.14 98.49 44.36 101.88 40.88 M 116.95 72.94 C 111.94 75.34 111.02 83.17 115.38 86.61 C 118.62 88.92 122.85 88.85 126.64 88.57 C 131.13 88.23 135.47 85.31 137.01 81.00 C 138.69 76.69 138.13 71.95 138.26 67.43 C 131.61 70.93 123.62 69.59 116.95 72.94 Z" />
<path fill="#181a5c" opacity="1.00" d=" M 310.71 43.38 C 314.70 36.18 322.87 32.15 330.95 32.19 C 337.33 32.09 344.28 33.35 348.95 38.05 C 353.74 43.05 354.74 50.34 354.92 56.97 C 354.97 70.94 354.91 84.91 354.94 98.88 C 348.97 98.88 343.01 98.89 337.04 98.87 C 337.06 86.91 337.07 74.95 337.05 62.99 C 336.89 58.52 336.85 53.65 334.20 49.83 C 331.78 46.43 327.18 46.00 323.36 46.36 C 319.58 46.60 315.76 48.51 313.98 51.97 C 311.77 56.27 311.57 61.25 311.57 65.99 C 311.63 76.94 311.50 87.89 311.65 98.84 C 305.61 98.91 299.58 98.89 293.55 98.86 C 293.63 77.20 293.56 55.54 293.59 33.88 C 299.26 33.88 304.93 33.89 310.60 33.90 C 310.63 37.06 310.67 40.22 310.71 43.38 Z" />
<path fill="#181a5c" opacity="1.00" d=" M 168.21 33.90 C 174.23 33.83 180.25 33.91 186.26 33.88 C 186.21 55.54 186.22 77.20 186.26 98.86 C 180.24 98.91 174.23 98.85 168.21 98.90 C 168.25 77.24 168.25 55.57 168.21 33.90 Z" />
<path fill="#181a5c" opacity="1.00" d=" M 237.92 35.88 C 238.65 34.96 239.39 33.58 240.83 33.89 C 247.11 33.84 253.39 33.91 259.67 33.89 C 253.61 42.48 247.53 51.05 241.53 59.69 C 238.19 54.82 234.70 50.06 231.39 45.17 C 233.60 42.10 235.70 38.95 237.92 35.88 Z" />
<path fill="#181a5c" opacity="1.00" d=" M 264.10 33.89 C 270.03 33.87 275.97 33.90 281.91 33.87 C 281.98 55.55 281.88 77.23 281.95 98.91 C 275.94 98.86 269.93 98.90 263.92 98.87 C 264.22 77.21 263.79 55.55 264.10 33.89 Z" />
<path fill="#181a5c" opacity="1.00" d=" M 211.78 73.04 C 215.17 77.80 218.42 82.67 221.92 87.36 C 219.35 91.24 216.59 95.00 213.96 98.85 C 207.16 98.92 200.36 98.89 193.56 98.86 C 199.70 90.30 205.65 81.61 211.78 73.04 Z" />
</g>
<g id="g-01b7dfff">
<path fill="#01b7df" opacity="1.00" d=" M 193.44 33.86 C 198.97 33.81 204.50 33.95 210.03 33.82 C 211.62 33.93 213.80 33.41 214.78 35.07 C 234.85 63.75 255.12 92.29 275.29 120.89 C 268.84 121.02 262.38 121.11 255.93 120.92 C 253.85 120.82 253.22 118.32 252.04 116.98 C 232.53 89.26 213.02 61.53 193.44 33.86 Z" />
</g>
</svg>
