<svg width="812" height="174" viewBox="0 0 812 174" fill="none" xmlns="http://www.w3.org/2000/svg">
<g clip-path="url(#clip0_8_2)">
<path d="M334.5 54.4702H333.97C329.01 46.8502 321.03 41.0002 308.26 41.0002C285.57 41.0002 269.44 60.6801 269.44 89.0401C269.44 117.4 285.04 137.08 307.91 137.08C320.67 137.08 329.72 131.23 335.03 122.54H335.38V134.42H358.6V7.66016H334.49V54.4601L334.5 54.4702ZM313.22 116.88C300.81 116.88 293.9 106.6 293.9 89.0501C293.9 71.5001 300.64 60.5102 313.93 60.5102C329.35 60.5102 335.03 72.2102 335.03 89.5802C335.03 106.95 327.58 116.88 313.22 116.88Z" fill="black"/>
<path d="M405.77 41C379.18 41 360.92 61.92 360.92 88.87C360.92 115.82 377.94 137.09 408.08 137.09C431.48 137.09 445.84 123.44 449.21 107.31H425.45C422.79 114.22 417.3 118.48 407.9 118.48C394.25 118.48 386.45 109.79 384.68 95.79H450.63C450.63 63.35 435.03 41.01 405.78 41.01L405.77 41ZM385.02 79.12C387.15 67.24 393.35 59.62 406.12 59.62C417.11 59.62 424.73 67.6 425.44 79.12H385.02Z" fill="black"/>
<path d="M498.15 117.76C483.44 117.76 476.52 106.24 476.52 89.04C476.52 71.84 483.97 60.32 498.5 60.32C507.36 60.32 513.57 66.35 515.16 74.33H538.74C535.55 54.65 521.01 41 497.43 41C469.77 41 452.05 61.92 452.05 89.04C452.05 116.16 469.96 137.08 498.68 137.08C522.97 137.08 538.04 121.66 539.63 102.33H516.41C514.81 112.61 507.9 117.75 498.15 117.75V117.76Z" fill="black"/>
<path d="M725.24 41C712.83 41 704.32 46.85 698.47 54.83H697.94V43.48H651.14L638.38 84.43C635.54 92.76 633.06 104.29 633.06 104.29H632.71C632.71 104.29 629.7 92.77 626.86 84.43L613.39 43.48H588.04C577.4 43.48 570.49 47.74 564.99 58.02H564.46V43.48H541.24V134.42H565.35V90.1C565.35 71.55 579.53 64 594.77 65.01C595.66 65.07 596.43 65.67 596.75 66.5L612.51 108.19C617.65 122.02 619.42 127.87 619.42 132.83C619.42 140.28 615.52 145.24 605.95 145.24H597.44V164.21H611.62C630.06 164.21 636.79 156.94 643.71 136.73L674.73 45.56V164.21H698.84V124.15H699.19C704.33 131.95 712.66 137.09 725.43 137.09C748.83 137.09 764.79 118.48 764.79 89.05C764.79 59.62 749.37 41.01 725.26 41.01L725.24 41ZM720.28 117.05C705.92 117.05 698.3 106.24 698.3 89.75C698.3 73.26 704.33 60.5 719.39 60.5C734.45 60.5 740.31 72.55 740.31 89.75C740.31 106.95 732.51 117.05 720.28 117.05Z" fill="black"/>
<path d="M804.31 116.7C798.99 116.7 795.27 114.39 795.27 107.66V59.4401H810.87V43.4801H795.27V15.1201H771.69V43.4801H759.1V59.4401H771.69V112.8C771.69 130 784.63 134.61 796.33 134.61C805.9 134.61 811.4 134.26 811.4 134.26V116.53C811.4 116.53 807.32 116.71 804.31 116.71V116.7Z" fill="black"/>
<path d="M55.94 39.9696L62.07 33.8396L34.04 5.80957L27.91 11.9396C-8.95 48.7996 -8.94001 108.79 27.93 145.66C64.8 182.53 124.79 182.54 161.65 145.68L167.78 139.55L139.75 111.52L133.62 117.65C112.21 139.06 77.38 139.05 55.96 117.63C34.54 96.2096 34.54 61.3796 55.94 39.9696Z" fill="black"/>
<path d="M173.91 133.41L167.78 139.54L195.81 167.57L201.94 161.44C238.8 124.58 238.79 64.5898 201.92 27.7198C165.05 -9.15022 105.06 -9.16021 68.2001 27.6998L62.0701 33.8298L90.1001 61.8598L96.2301 55.7298C117.64 34.3198 152.47 34.3298 173.89 55.7498C195.31 77.1698 195.31 112 173.91 133.41Z" fill="black"/>
</g>
<defs>
<clipPath id="clip0_8_2">
<rect width="812" height="174" fill="white"/>
</clipPath>
</defs>
</svg>
