<?xml version="1.0" encoding="UTF-8"?>
<svg id="svg12326" xmlns="http://www.w3.org/2000/svg" version="1.1" xmlns:inkscape="http://www.inkscape.org/namespaces/inkscape" xmlns:sodipodi="http://sodipodi.sourceforge.net/DTD/sodipodi-0.dtd" xmlns:svg="http://www.w3.org/2000/svg" viewBox="0 0 290.2 87.9">
  <!-- Generator: Adobe Illustrator 29.7.1, SVG Export Plug-In . SVG Version: 2.1.1 Build 8)  -->
  <defs>
    <style>
      .st0 {
        fill: #fff;
      }
    </style>
  </defs>
  <sodipodi:namedview id="namedview12328" bordercolor="#000000" borderopacity="0.25" inkscape:current-layer="layer1" inkscape:cx="513.5718" inkscape:cy="250.941" inkscape:deskcolor="#d1d1d1" inkscape:document-units="mm" inkscape:pagecheckerboard="0" inkscape:pageopacity="0.0" inkscape:showpageshadow="2" inkscape:window-height="1011" inkscape:window-maximized="1" inkscape:window-width="1920" inkscape:window-x="0" inkscape:window-y="0" inkscape:zoom="0.64158508" pagecolor="#ffffff" showgrid="false"/>
  <g id="layer1" inkscape:groupmode="layer" inkscape:label="Layer 1">
    <path id="path260" class="st0" d="M252.4,61.1h6.6v-19.3c0-8.9-4.8-12.3-13.3-12.3-4.7,0-8.1.9-10.6,2.4v5.9h.3c2.8-1.5,5.9-2.3,9.1-2.2,4.7,0,6.8,1.5,6.8,6.4h0c0,.1-6.2,1-6.2,1-7.5,1.1-12.4,3.3-12.4,9.7s4.4,9.1,10.4,9.1,7.1-2,8.7-4.2l.6,3.4ZM251.4,53.4c-1.3,1.7-3.3,3-6.3,3-3.2,0-4.7-1.6-4.7-4s1.8-3.8,6.5-4.5l4.5-.7v6.3M221.6,25.4h7.8v-6.7h-7.8v6.7ZM221.7,61.1h7.7v-30.9h-7.7v30.9ZM195.5,59c2.4,1.6,5.5,2.7,10.6,2.7s12.1-3.5,12.1-10.1-3-7.6-9.2-9.3l-2.9-.7c-2.4-.6-3.5-1.6-3.5-3.3s1.1-3.2,4.5-3.2c3.1,0,6.1.7,8.8,2.1l.3-.2v-5.9c-2.4-1.1-5.2-1.8-9.2-1.8-7,0-11.5,3.7-11.5,9.5s3.2,7.8,8,9.1l3,.8c3.2.8,4.3,1.5,4.3,3.6s-1.8,3.5-5.2,3.5c-3.6,0-7-1.2-9.8-3.4h-.3v6.4M184.8,61.1h7.8v-.4l-17-41.3h-3.4l-17,41.3v.4h7.8l3.3-8.5h15l3.4,8.5ZM179.1,46.7h-10.3l5.1-13.6,5.1,13.6ZM142.4,61.1h3.9v-30.7h-3.9v30.7ZM120.4,61.1h16.4v-3.4h-12.4v-10.8h10.8v-3.4h-10.8v-9.7h12.4v-3.4h-16.4v30.7ZM112,61.1h4.4v-.2l-11.7-18,10.9-12.2v-.2h-4.2l-13.5,15v-15h-3.9v30.7h3.9v-11l4-4.4,10,15.4ZM85.6,61.1h4.4v-.2l-11.7-18,10.9-12.2v-.2h-4.2l-13.5,15v-15h-3.9v30.7h3.9v-11l4-4.4,10,15.4ZM56.8,61.1h3.9v-30.7h-3.9v30.7ZM48.7,61.1l-19.9-22.8v22.8h-3.8v-30.7h1.4l19.9,22.7v-22.7h3.8v30.7h-1.3Z"/>
  </g>
</svg>