<?xml version="1.0" encoding="utf-8"?>
<!-- Generator: Adobe Illustrator 19.2.1, SVG Export Plug-In . SVG Version: 6.00 Build 0)  -->
<svg version="1.1" id="layer" xmlns="http://www.w3.org/2000/svg" xmlns:xlink="http://www.w3.org/1999/xlink" x="0px" y="0px"
	 viewBox="0 0 652 652" style="enable-background:new 0 0 652 652;" xml:space="preserve">
<path d="M111.3,296.1l-39.8-15.6c-1.5-0.5-1.9-0.5-3.4,0l-39.8,15.6c-1.6,0.7-1.9,1.3-1.9,2.9v53.3c0,1.7,0.3,2.1,1.9,2.9l39.8,16.2
	l0,0c0.8,0.3,1.3,0.5,1.8,0.5c0.5,0,1-0.1,1.7-0.5l39.8-16.2c1.6-0.6,1.9-1.1,1.9-2.9V299C113.3,297.4,112.9,296.8,111.3,296.1z
	 M103.2,352.5l-33.4,13.4l-33.4-13.4l33.4-12L103.2,352.5z M36.5,298.8l33.3-12.7l33.3,12.7l-33.3,12.1L36.5,298.8z M82.5,335.6
	c0.7-0.2,1.1-0.9,1.1-1.6v-16.6c0-0.7-0.5-1.4-1.1-1.6L78,314l29.5-10.9v45.2L78,337.4L82.5,335.6z M77.8,320.3v10.9l-8,3.2
	l-7.9-3.2v-10.9l7.9-3.2L77.8,320.3z M57.2,315.8c-0.7,0.2-1.1,0.9-1.1,1.7V334c0,0.7,0.5,1.4,1.1,1.6l4.5,1.8l-29.5,10.9v-45.2
	l29.5,11L57.2,315.8z"/>
<path d="M157.6,308.3h-20.1v-11.1h54.1v11.1h-20v46.1h-13.8v-46.1H157.6z M196.6,297.3h13.8v21.5h26.3v-21.5h13.8v57.2h-13.8v-24.7
	h-26.3v24.6h-13.8V297.3z M303.3,330.3h-31.9v13h34.3v11.1h-48.3v-57.2h48.3v11.1h-34.3v10.7h31.9V330.3z M333.5,297.3h31.7
	c13.7,0,19.7,6.6,19.7,14.8c0,6.6-4.1,10.5-8.6,12.2c5.5,1.7,10.6,5.9,10.6,13.3c0,10.7-8.2,17-22.2,17h-31.1v-57.3H333.5z
	 M362.2,319.6c6.2,0,8.2-2.5,8.2-5.9c0-4.3-3.3-6.1-8.1-6.1h-15.2v12H362.2z M347.1,344.1h15.7c5.4,0,9.4-1.6,9.4-7.2
	c0-4.6-3.1-6.9-9.1-6.9h-15.9L347.1,344.1L347.1,344.1z M393,297.3h13.8v46.1H437v11.1h-44V297.3z M500.1,325.6
	c0,15.9-10.5,30-31.3,30c-19.4,0-30.4-13.3-30.4-30c0-15.8,11.8-29.6,31.1-29.6C489.4,296,500.1,310.1,500.1,325.6z M452.9,325.5
	c0,10.9,5.5,19.3,16.6,19.3c11.5,0,16-9.7,16-19c0-10.2-4.9-19-16.5-19C457.8,306.9,452.9,315.9,452.9,325.5z M562.4,336.3
	c-2.6,10.1-10.6,19.3-28.6,19.3c-20.5,0-30.3-14.2-30.3-29.7c0-15.6,10.9-29.8,31-29.8c17.5,0,26.3,9.7,27.9,19.3h-14.1
	c-1.1-3.3-4.2-8.6-14.1-8.6c-10.7,0-16.2,8.1-16.2,18.5c0,10.5,5,19.6,16.4,19.6c8.1,0,11.7-3.2,14-8.7h14.1V336.3z M567.1,297.3
	H581v25c8.2-7.7,16.1-14.9,27-25h16.9L598,321.9l28.4,32.6h-17.3l-20.8-25l-7.3,6.1v18.9h-13.8V297.3z"/>
</svg>
