<?xml version="1.0" encoding="UTF-8"?>
<svg id="Layer_1" xmlns="http://www.w3.org/2000/svg" version="1.1" viewBox="0 0 500 200">
  <!-- Generator: Adobe Illustrator 29.8.2, SVG Export Plug-In . SVG Version: 2.1.1 Build 3)  -->
  <defs>
    <style>
      .st0 {
        fill: #fff;
      }
    </style>
  </defs>
  <g id="g-181a5cff">
    <path class="st0" d="M188.6,74.3c5.4-.8,11.4.3,15.6,4.1,2.9,2.5,4.5,6.1,5,9.9-2.8,0-5.6,0-8.4,0-.6-3.4-3.5-6-6.8-6.7-2.8-.5-6,0-8.2,1.8-1.9,1.5-3.1,3.6-3.7,5.9-.9,3.3-1,6.9-.2,10.2.6,2.3,1.6,4.6,3.5,6.2,2.8,2.5,7,3,10.5,1.7,3.3-1.3,4.9-4.9,5.3-8.1,2.8,0,5.6,0,8.4,0-.4,4.2-2,8.5-5.1,11.5-3.3,3.2-8,4.6-12.5,4.5-4.7,0-9.6-1.5-13.1-4.8-4.2-3.9-6.2-9.7-6.2-15.3,0-5.2,1.4-10.5,4.7-14.5,2.8-3.5,7-5.6,11.3-6.3Z"/>
    <path class="st0" d="M244.5,75c2.6,0,5.3,0,7.9,0,0,2.1,0,4.3,0,6.4-2.6,0-5.3,0-7.9,0,0-2.1,0-4.3,0-6.4Z"/>
    <path class="st0" d="M286.5,75c2.6,0,5.3,0,7.9,0,0,2.1,0,4.3,0,6.4-2.6,0-5.2,0-7.9,0,0-2.1,0-4.3,0-6.4Z"/>
    <path class="st0" d="M215.5,88.9c2.4-2.6,5.9-3.5,9.3-3.7,2.6-.2,5.2,0,7.8.5,2.3.5,4.6,1.7,5.9,3.7.9,1.4.9,3.2.9,4.8,0,4.4,0,8.8,0,13.2,0,2.3,0,4.8.9,7-2.7,0-5.3,0-8,0-.2-.9-.3-1.8-.5-2.7-2.9,2.8-7.1,3.6-11,3.3-3-.2-6.2-1.6-7.6-4.4-1.6-3.5-1.1-8.4,2.4-10.6,3.9-2.3,8.6-2,12.9-3,1.1-.3,2.5-.7,2.9-1.9.3-1.3,0-2.9-1-3.8-.9-.8-2.2-.9-3.3-1-1.6,0-3.3,0-4.5,1.2-1,.7-1.1,2-1.4,3.1-2.6,0-5.2,0-7.9,0,.2-2.1.8-4.2,2.3-5.7M222.1,102.9c-2.2,1.1-2.6,4.5-.7,6,1.4,1,3.3,1,4.9.9,2-.1,3.9-1.4,4.5-3.3.7-1.9.5-4,.5-6-2.9,1.5-6.4.9-9.3,2.4Z"/>
    <path class="st0" d="M307,90c1.7-3.2,5.3-4.9,8.9-4.9,2.8,0,5.8.5,7.9,2.6,2.1,2.2,2.5,5.4,2.6,8.3,0,6.1,0,12.3,0,18.4-2.6,0-5.2,0-7.8,0,0-5.2,0-10.5,0-15.7,0-2,0-4.1-1.2-5.8-1.1-1.5-3.1-1.7-4.8-1.5-1.7.1-3.3.9-4.1,2.5-1,1.9-1.1,4.1-1.1,6.1,0,4.8,0,9.6,0,14.4-2.6,0-5.3,0-7.9,0,0-9.5,0-19,0-28.5,2.5,0,5,0,7.5,0,0,1.4,0,2.8,0,4.2Z"/>
    <path class="st0" d="M244.5,85.8c2.6,0,5.3,0,7.9,0,0,9.5,0,19,0,28.5-2.6,0-5.3,0-7.9,0,0-9.5,0-19,0-28.5Z"/>
    <path class="st0" d="M275.1,86.7c.3-.4.6-1,1.3-.9,2.8,0,5.5,0,8.3,0-2.7,3.8-5.3,7.5-8,11.3-1.5-2.1-3-4.2-4.4-6.4,1-1.3,1.9-2.7,2.9-4.1Z"/>
    <path class="st0" d="M286.6,85.8c2.6,0,5.2,0,7.8,0,0,9.5,0,19,0,28.5-2.6,0-5.3,0-7.9,0,.1-9.5,0-19,0-28.5Z"/>
    <path class="st0" d="M263.7,103c1.5,2.1,2.9,4.2,4.4,6.3-1.1,1.7-2.3,3.4-3.5,5-3,0-6,0-8.9,0,2.7-3.8,5.3-7.6,8-11.3Z"/>
  </g>
  <g id="g-01b7dfff">
    <path class="st0" d="M255.6,85.8c2.4,0,4.9,0,7.3,0,.7,0,1.7-.2,2.1.5,8.8,12.6,17.7,25.1,26.5,37.6-2.8,0-5.7,0-8.5,0-.9,0-1.2-1.1-1.7-1.7-8.6-12.2-17.1-24.3-25.7-36.4Z"/>
  </g>
</svg>