<?xml version="1.0" encoding="UTF-8"?>
<svg id="Layer_1" xmlns="http://www.w3.org/2000/svg" version="1.1" viewBox="0 0 500 200">
  <!-- Generator: Adobe Illustrator 29.8.2, SVG Export Plug-In . SVG Version: 2.1.1 Build 3)  -->
  <defs>
    <style>
      .st0 {
        fill: #fff;
      }
    </style>
  </defs>
  <g id="Page-1">
    <g id="CT-logo-BlackYellow-tag">
      <g id="Atoms_x2F_Icons_x2F_logos_x2F_CT-GY-icon">
        <g id="Group">
          <path id="Shape" class="st0" d="M104.9,129.5l-17,7.4v-.7c-3.3.8-7,1.3-10.4,1.5-16.1-.1-28.8-8.6-29-18.5v-3.7c5.2,7.6,16,12.8,29,12.6,4.4.2,8.9-.5,12.6-1.5l1.5-3.7c-4.4,1.4-9.3,2.2-14.1,2.2-16.1,0-28.8-8.4-29-18.5v-3c5.2,7.1,16,12.2,29,11.9,5.9.3,11.5-.9,16.4-3l.7-3.7c-4.7,2.5-10.8,3.9-17,3.7-16.1.2-28.8-8.2-29-18.5v-3c5.2,7.2,16,12.4,29,12.6,7.4-.2,14.3-2.2,20-5.2l.7-4.4c-5.2,3.8-12.7,6.3-20.8,6.7-16.1-.3-28.8-8.8-29-19.3.1-10,12.9-18.4,29-18.5,9.5.1,18.5,3.5,23.7,8.9l.5.9h3.7l-.5-.9c-5.2-7.2-15.8-11.9-27.5-11.9-17.9,0-32,9.7-32,21.4v38.6c.6,11.5,14.5,20.8,31.9,20.8,11.5,0,21.9-4.5,27.5-11.1Z"/>
          <path id="Shape1" data-name="Shape" class="st0" d="M97.9,155.6l6-25.5-17.2,7.5,10.5-44.2h-20.2l5.2-21.7h64.4l-5.2,21.7h-21l-4.5,12,23.2-9.7-41.2,59.9ZM108.4,124.9l-3,15,24.7-37.4-20.2,9,9-21h20.2l3.7-15.7h-58.5l-3.7,15.7h20.2l-9.7,41.9,17.2-7.5Z"/>
        </g>
      </g>
      <path id="Shape2" data-name="Shape" class="st0" d="M189.4,86.2h0c0,2.5-.7,4.3-2.2,5.7s-3.5,2-6.2,2-4.8-.9-6.5-2.6-2.5-4-2.5-6.7v-4.4c0-2.7.8-5,2.4-6.7,1.6-1.7,3.7-2.6,6.3-2.6s4.8.7,6.4,2c1.6,1.4,2.3,3.2,2.2,5.6h0c0,0-4.4,0-4.4,0,0-1.4-.3-2.5-1-3.2s-1.8-1-3.2-1-2.4.5-3.1,1.6-1.2,2.5-1.2,4.2v4.5c0,1.7.4,3.1,1.2,4.2.8,1.1,1.9,1.6,3.3,1.6s2.3-.3,3-1,1-1.8,1-3.2h4.3ZM214.1,84.5c0,2.7-.9,5-2.6,6.8s-4,2.7-6.7,2.7-5-.9-6.7-2.7c-1.7-1.8-2.6-4.1-2.6-6.8v-4c0-2.7.9-5,2.6-6.8,1.7-1.8,4-2.7,6.7-2.7s5,.9,6.7,2.7c1.8,1.8,2.6,4.1,2.6,6.8v4h0ZM209.6,80.4c0-1.8-.4-3.1-1.3-4.3-.9-1.1-2-1.7-3.6-1.7s-2.7.5-3.5,1.7c-.8,1.1-1.3,2.5-1.3,4.3v4c0,1.8.4,3.2,1.3,4.4.8,1.1,2,1.7,3.5,1.7s2.7-.5,3.6-1.7c.9-1.1,1.3-2.6,1.3-4.4v-4ZM225.7,93.6h-4.5v-22.4h4.5v22.4ZM251.5,93.6h-4.5l-9-15.1h0v15.1h-4.5v-22.4h4.5l9,15.1h0v-15.1h4.5v22.4ZM274.1,74.7h-6.4v18.9h-4.5v-18.9h-6.3v-3.5h17.2v3.5ZM292.6,83.8h-8.3v6.4h9.9v3.4h-14.3v-22.4h14.3v3.5h-9.8v5.6h8.3v3.5h0ZM305.1,90.2h10v3.4h-14.5v-22.4h4.5v19h0ZM334.2,83.8h-8.3v6.4h9.9v3.4h-14.3v-22.4h14.3v3.5h-9.8v5.6h8.3v3.5h0ZM359.3,90.6c-.7.9-1.7,1.7-3.1,2.4-1.4.7-3.1,1-5.3,1s-4.9-.8-6.6-2.5-2.6-3.9-2.6-6.6v-4.7c0-2.7.8-4.9,2.5-6.6,1.6-1.7,3.8-2.6,6.4-2.6s4.8.7,6.3,2,2.2,3,2.1,5.2h0c0,0-4.2,0-4.2,0,0-1.2-.3-2.1-1-2.8s-1.7-1-3-1-2.5.5-3.3,1.6c-.8,1.1-1.2,2.5-1.2,4.1v4.7c0,1.7.4,3.1,1.3,4.2s2,1.6,3.5,1.6,1.9-.1,2.5-.3c.6-.2,1.1-.5,1.4-.8v-4.4h-4.3v-3.1h8.8v8.8h0ZM370.9,84.7v8.9h-4.5v-22.4h7.8c2.5,0,4.6.6,6,1.8,1.4,1.2,2.2,2.8,2.2,4.8s-.3,2.1-.9,3c-.6.8-1.5,1.5-2.7,2,1.3.4,2.2,1,2.9,2,.5.9.9,2,.9,3.4v1.6c0,.6,0,1.3.3,2,.1.7.5,1.2.9,1.5v.3h-4.6c-.4-.3-.7-.9-.8-1.6s-.2-1.5-.2-2.2v-1.6c0-1.1-.3-2-.9-2.6s-1.5-1-2.6-1h-3.7ZM370.9,81.3h3.2c1.2,0,2.2-.3,2.8-.8s1-1.3,1-2.4-.3-1.8-1-2.5-1.5-.9-2.7-.9h-3.3v6.5h0ZM401.4,88.8h-7.2l-1.5,4.8h-4.7l7.6-22.4h4.6l7.5,22.4h-4.7l-1.5-4.8ZM395.3,85.3h5l-2.5-7.9h0l-2.5,7.9ZM417.6,85.5v8.1h-4.5v-22.4h8.6c2.6,0,4.6.7,6.1,2s2.2,3.1,2.2,5.2-.7,3.9-2.2,5.2c-1.5,1.3-3.5,2-6.1,2h-4.1ZM417.6,82.1h4.1c1.2,0,2.2-.3,2.9-1,.6-.7,1-1.6,1-2.6s-.3-2-1-2.7-1.6-1-2.9-1h-4.1v7.3ZM454.5,93.6h-4.5v-9.3h-9.1v9.3h-4.5v-22.4h4.5v9.6h9.1v-9.6h4.5v22.4Z"/>
      <g id="Tag_x2F_The-future-of-money-_x2014_-dark-grey">
        <path id="The-future-of-money" class="st0" d="M180.3,130.1h-2.8v-14.7h-5v-2.4h12.9v2.4h-5s0,14.7,0,14.7ZM199,130.1h-2.8v-8c0-1-.2-1.8-.6-2.2-.4-.5-1-.7-1.9-.7s-2,.3-2.5,1c-.5.7-.8,1.8-.8,3.5v6.4h-2.7v-18.2h2.7v4.6c0,.7,0,1.5-.1,2.4h.2c.3-.6.9-1.1,1.6-1.4s1.4-.5,2.3-.5c3.1,0,4.7,1.6,4.7,4.8v8.5ZM208.5,130.4c-2,0-3.6-.6-4.7-1.8-1.2-1.2-1.7-2.8-1.7-4.8s.5-3.7,1.6-5,2.5-1.8,4.4-1.8,3.1.5,4,1.6c1,1,1.5,2.5,1.5,4.3v1.5h-8.7c0,1.2.4,2.2,1,2.9.6.7,1.6,1,2.7,1s1.5,0,2.1-.2c.7-.1,1.4-.4,2.1-.7v2.2c-.7.3-1.4.5-2,.7-.6.1-1.4.2-2.3.2ZM208,119c-.9,0-1.6.3-2.1.8-.5.5-.8,1.4-1,2.5h5.9c0-1.1-.3-1.9-.7-2.5-.5-.5-1.2-.8-2-.8ZM229.3,119.2h-3.1v10.9h-2.8v-10.9h-2.1v-1.3l2.1-.8v-.8c0-1.5.3-2.7,1.1-3.4s1.8-1.1,3.3-1.1,1.9.1,2.9.5l-.7,2.1c-.7-.2-1.3-.3-2-.3s-1.1.2-1.4.5c-.3.4-.4,1-.4,1.7v.8h3.1v2.1h0ZM240.7,130.1l-.4-1.7h-.1c-.4.6-1,1.1-1.6,1.4s-1.5.5-2.4.5c-1.6,0-2.7-.4-3.5-1.2s-1.2-2-1.2-3.5v-8.5h2.8v8c0,1,.2,1.7.6,2.2.4.5,1,.7,1.9.7s2-.3,2.5-1,.8-1.8.8-3.5v-6.5h2.8v13h-2.2ZM251.6,128.1c.7,0,1.4-.1,2-.3v2c-.3.1-.7.3-1.2.3s-1,.1-1.5.1c-2.6,0-3.9-1.4-3.9-4.1v-7h-1.8v-1.2l1.9-1,1-2.7h1.7v2.9h3.7v2.1h-3.7v7c0,.7.1,1.2.5,1.5.2.3.7.4,1.2.4ZM265.3,130.1l-.4-1.7h-.1c-.4.6-1,1.1-1.6,1.4s-1.5.5-2.4.5c-1.6,0-2.7-.4-3.5-1.2-.7-.7-1.2-2-1.2-3.5v-8.5h2.8v8c0,1,.2,1.7.6,2.2.4.5,1,.7,1.9.7s2-.3,2.5-1,.8-1.8.8-3.5v-6.5h2.8v13h-2.2ZM278,116.9c.5,0,1,0,1.4.1l-.3,2.6c-.4,0-.8-.1-1.2-.1-1.1,0-2,.3-2.7,1.1s-1,1.6-1,2.8v6.7h-2.7v-13h2.2l.3,2.2h.1c.4-.7,1-1.4,1.7-1.8.6-.4,1.4-.7,2.2-.7ZM286.9,130.4c-2,0-3.6-.6-4.7-1.8-1.2-1.2-1.7-2.8-1.7-4.8s.5-3.7,1.6-5,2.5-1.8,4.4-1.8,3.1.5,4,1.6c1,1,1.5,2.5,1.5,4.3v1.5h-8.7c0,1.2.4,2.2,1,2.9.6.7,1.6,1,2.7,1s1.5,0,2.1-.2c.7-.1,1.4-.4,2.1-.7v2.2c-.7.3-1.4.5-2,.7-.7.1-1.4.2-2.3.2ZM286.5,119c-.9,0-1.6.3-2.1.8-.5.5-.8,1.4-1,2.5h5.9c0-1.1-.3-1.9-.7-2.5-.5-.5-1.2-.8-2-.8ZM312.8,123.6c0,2.1-.5,3.7-1.6,5-1.1,1.2-2.6,1.8-4.5,1.8s-2.2-.3-3.2-.8-1.6-1.4-2.1-2.4c-.5-1-.7-2.2-.7-3.5,0-2.1.5-3.7,1.6-4.9s2.6-1.8,4.6-1.8,3.3.6,4.4,1.8,1.6,2.8,1.6,4.8ZM303.4,123.6c0,3,1.1,4.5,3.3,4.5s3.3-1.5,3.3-4.5-1.1-4.4-3.3-4.4-2,.4-2.5,1.2-.8,1.8-.8,3.3ZM322.5,119.2h-3.1v10.9h-2.8v-10.9h-2.1v-1.3l2.1-.8v-.8c0-1.5.3-2.7,1.1-3.4s1.8-1.1,3.3-1.1,1.9.1,2.9.5l-.7,2.1c-.7-.2-1.3-.3-2-.3s-1.1.2-1.4.5-.4,1-.4,1.7v.8h3.1v2.1h0ZM341.8,130.1h-2.8v-8c0-1-.2-1.7-.5-2.2-.3-.5-1-.7-1.8-.7s-1.8.3-2.3,1c-.5.7-.7,1.8-.7,3.5v6.5h-2.7v-13h2.2l.4,1.7h.1c.3-.6.9-1.1,1.6-1.4s1.4-.5,2.2-.5c2,0,3.3.7,4,2h.2c.4-.6,1-1.2,1.6-1.5s1.5-.5,2.4-.5c1.6,0,2.7.4,3.4,1.2.7.7,1.1,2,1.1,3.5v8.5h-2.7v-8c0-1-.2-1.7-.5-2.2-.4-.5-1-.7-1.8-.7s-1.8.3-2.3,1c-.5.7-.7,1.7-.7,3.1v6.9h-.2ZM365.3,123.6c0,2.1-.5,3.7-1.6,5-1.1,1.2-2.6,1.8-4.5,1.8s-2.2-.3-3.2-.8c-1-.5-1.6-1.4-2.1-2.4s-.7-2.2-.7-3.5c0-2.1.5-3.7,1.6-4.9s2.6-1.8,4.6-1.8,3.3.6,4.4,1.8c1,1.2,1.6,2.8,1.6,4.8ZM355.9,123.6c0,3,1.1,4.5,3.3,4.5s3.3-1.5,3.3-4.5-1.1-4.4-3.3-4.4-2,.4-2.5,1.2c-.5.7-.8,1.8-.8,3.3ZM379.9,130.1h-2.8v-8c0-1-.2-1.8-.6-2.2-.4-.5-1-.7-1.9-.7s-2,.3-2.5,1-.8,1.8-.8,3.5v6.5h-2.7v-13h2.2l.4,1.7h.1c.4-.6,1-1.1,1.6-1.4s1.5-.5,2.4-.5c3.1,0,4.6,1.6,4.6,4.8v8.4ZM389.3,130.4c-2,0-3.6-.6-4.7-1.8-1.2-1.2-1.7-2.8-1.7-4.8s.5-3.7,1.6-5,2.5-1.8,4.4-1.8,3.1.5,4,1.6c1,1,1.5,2.5,1.5,4.3v1.5h-8.7c0,1.2.4,2.2,1,2.9.6.7,1.6,1,2.7,1s1.5,0,2.1-.2,1.4-.4,2.1-.7v2.2c-.7.3-1.4.5-2,.7-.7.1-1.4.2-2.3.2ZM388.8,119c-.9,0-1.6.3-2.1.8s-.8,1.4-1,2.5h5.9c0-1.1-.3-1.9-.7-2.5s-1.2-.8-2-.8ZM395.1,117.2h3l2.7,7.4c.4,1,.7,2,.8,2.9h0c0-.4.2-1,.4-1.6.2-.6,1.2-3.5,3-8.7h3l-5.5,14.7c-1,2.7-2.7,4-5,4s-1.2,0-1.8-.2v-2.2c.4,0,.9.1,1.4.1,1.3,0,2.2-.7,2.8-2.3l.5-1.2-5.3-12.9Z"/>
      </g>
    </g>
  </g>
</svg>