<?xml version="1.0" encoding="UTF-8"?>
<svg id="Layer_1" xmlns="http://www.w3.org/2000/svg" version="1.1" viewBox="0 0 500 200">
  <!-- Generator: Adobe Illustrator 29.8.2, SVG Export Plug-In . SVG Version: 2.1.1 Build 3)  -->
  <defs>
    <style>
      .st0 {
        fill: #fff;
      }
    </style>
  </defs>
  <path class="st0" d="M179.2,107.3c-5.9,0-9.6-5.3-9.6-12.7s3.1-12.7,9.6-12.7,7.1,2.7,7.6,6.3h9.9c-.5-4.5-2.5-8.4-6-11-2.8-2.2-6.8-3.5-11.4-3.5-11.9,0-19.7,9-19.7,20.9s8,20.8,19.7,20.8,9.7-1.6,12.8-4.6c2.7-2.6,4.5-6.3,4.8-10.2h-9.9c-.4,3.9-3.3,6.7-7.8,6.7Z"/>
  <path class="st0" d="M215.2,85.1c-9.2,0-15.3,6.6-15.3,15.2s6.1,15.2,15.3,15.2,15.3-6.6,15.3-15.2-6-15.2-15.3-15.2ZM215.1,108.9c-4,0-6-3.5-6-8.7s2.1-8.7,6-8.7,6.1,3.5,6.1,8.7c0,5.2-2.1,8.7-6.1,8.7Z"/>
  <path class="st0" d="M243.3,82c1.9-1.9,1.9-5.1,0-7.1-1.9-1.9-5.1-1.9-7,0s-1.9,5.1,0,7.1,5.1,1.9,7,0Z"/>
  <path class="st0" d="M231.9,92.3h3.8v22.2h9.1v-28.7h-12.9v6.4Z"/>
  <path class="st0" d="M267.2,85c-4,0-6.7,1.7-8.8,4.8h-.2v-3.9h-8.8v28.7h9.1v-15.8c0-3.5,2-6,5-6s4.5,2.1,4.5,5.1v16.8h9.1v-18.6c0-6.4-3.7-10.9-10-10.9Z"/>
  <path class="st0" d="M298.5,74.5h-17v40h16.4c5,0,9-1.3,12.2-3.6,4.5-3.4,6.9-9.1,6.9-16.1,0-12.2-7.5-20.2-18.5-20.2ZM297.1,106.2h-5.8v-23.4h5.9c6.2,0,9.7,4.7,9.7,12,0,7.3-3.4,11.4-9.8,11.4Z"/>
  <path class="st0" d="M344,88.8c-2.5-2.2-5.7-3.6-9.8-3.6-8.7,0-14.7,6.6-14.7,15.1s5.8,15.2,15.3,15.2,6.5-.9,8.9-2.6c2.5-1.7,4.2-4.2,4.8-6.8h-8.9c-.8,1.8-2.4,2.8-4.8,2.8-3.7,0-5.9-2.4-6.4-6.3h20.6c0-5.9-1.6-10.8-5.1-13.9ZM328.5,97.3c.6-3.4,2.4-5.6,5.9-5.6s5.1,2.2,5.4,5.6h-11.3Z"/>
  <path class="st0" d="M367,96.6c-3.6-.7-6.9-.9-6.9-2.9s1.7-2.6,4-2.6,4.3.8,4.6,3.4h8.4c-.4-5.6-4.8-9.2-12.9-9.2s-12.4,3.1-12.4,9.2,5.3,8,10.3,8.9c3.8.7,7.3.9,7.3,3.5s-1.7,2.8-4.5,2.8-4.9-1.4-5.3-4.3h-8.6c.3,6.3,5.5,10.2,13.9,10.2s13-3.2,13-9.5c0-7.3-5.9-8.6-10.9-9.5Z"/>
  <path class="st0" d="M399.4,96.6l10.1-10.8h-10.5l-8.5,9.7v-21h-9v40.1h9v-8.8l2.8-2.9,6.9,11.7h10.5l-11.2-17.9Z"/>
  <path class="st0" d="M119.5,97.3c1.5,0,2.8-1.2,2.8-2.8s-1.2-2.8-2.8-2.8-2.8,1.2-2.8,2.8,1.2,2.8,2.8,2.8Z"/>
  <path class="st0" d="M141.6,97.3c1.5,0,2.8-1.2,2.8-2.8s-1.2-2.8-2.8-2.8-2.8,1.2-2.8,2.8,1.2,2.8,2.8,2.8Z"/>
  <path class="st0" d="M141.6,119.4c1.5,0,2.8-1.2,2.8-2.8s-1.2-2.8-2.8-2.8-2.8,1.2-2.8,2.8,1.2,2.8,2.8,2.8Z"/>
  <path class="st0" d="M149.7,71.9c-.3-4-3.5-7.3-7.6-7.6-2.6-.2-4.9.8-6.5,2.5-1.2,1.3-2.9,2-4.7,2h-.7c-1.8,0-3.5-.8-4.8-2.1-1.5-1.5-3.6-2.4-5.9-2.4s-4.4.9-5.9,2.4c-1.3,1.3-3,2.1-4.8,2.1h-.6c-1.8,0-3.5-.7-4.7-2-.3-.3-.5-.5-.8-.7-3.1-2.5-7.6-2.4-10.6.2-3.6,3.2-3.7,8.7-.4,12.1,0,0,0,0,.1.1,1.3,1.2,2,3,2,4.8v.6c0,1.8-.8,3.5-2.1,4.8-1.5,1.5-2.4,3.6-2.4,5.9s.9,4.4,2.4,5.9c1.3,1.3,2.1,3,2.1,4.8v.8c0,1.8-.8,3.5-2,4.7-1.6,1.6-2.6,3.8-2.5,6.2.2,4.3,3.7,7.8,7.9,7.9,2.5,0,4.7-.9,6.3-2.5,1.2-1.3,2.9-2.1,4.7-2.1h.7c1.8,0,3.5.8,4.7,2.1,1.6,1.7,4,2.7,6.6,2.5,4-.3,7.3-3.6,7.6-7.6.3-4.8-3.5-8.8-8.2-8.8s-4.3.9-5.8,2.4c-1.3,1.3-3,2-4.8,2h-.8c-1.8,0-3.5-.7-4.8-2t0,0c-1.3-1.3-2.1-3-2.1-4.8v-.7c0-1.8.8-3.5,2.1-4.8,1.5-1.5,2.4-3.6,2.4-5.9s-.9-4.4-2.4-5.9c-1.3-1.3-2.1-3-2.1-4.8v-.7c0-1.8.8-3.5,2-4.8t0,0s0,0,0,0c1.3-1.3,3-2,4.8-2h.7c1.8,0,3.5.8,4.8,2.1,1.5,1.5,3.6,2.4,5.9,2.4s4.4-.9,5.9-2.4c1.3-1.3,3-2.1,4.8-2.1h.6c1.8,0,3.5.8,4.8,2.1,1.5,1.5,3.6,2.4,5.9,2.4,4.7,0,8.5-4,8.2-8.8Z"/>
</svg>