<?xml version="1.0" encoding="UTF-8"?>
<svg id="Layer_1" xmlns="http://www.w3.org/2000/svg" version="1.1" viewBox="0 0 500 200">
  <!-- Generator: Adobe Illustrator 29.8.2, SVG Export Plug-In . SVG Version: 2.1.1 Build 3)  -->
  <defs>
    <style>
      .st0 {
        fill: #fff;
      }
    </style>
  </defs>
  <path class="st0" d="M227.2,89h-.2c-1.6-2.4-4.1-4.3-8.2-4.3-7.3,0-12.4,6.3-12.4,15.4s5,15.4,12.3,15.4,7-1.9,8.7-4.6h.1v3.8h7.4v-40.5h-7.7v15h0ZM220.4,109c-4,0-6.2-3.3-6.2-8.9s2.2-9.1,6.4-9.1,6.7,3.7,6.7,9.3-2.4,8.7-7,8.7Z"/>
  <path class="st0" d="M250,84.7c-8.5,0-14.3,6.7-14.3,15.3s5.4,15.4,15.1,15.4,12.1-4.4,13.2-9.5h-7.6c-.9,2.2-2.6,3.6-5.6,3.6-4.4,0-6.9-2.8-7.4-7.3h21.1c0-10.4-5-17.5-14.3-17.5h0ZM243.3,96.9c.7-3.8,2.7-6.2,6.7-6.2s6,2.6,6.2,6.2h-12.9Z"/>
  <path class="st0" d="M279.5,109.2c-4.7,0-6.9-3.7-6.9-9.2s2.4-9.2,7-9.2,4.8,1.9,5.3,4.5h7.5c-1-6.3-5.7-10.7-13.2-10.7s-14.5,6.7-14.5,15.4,5.7,15.4,14.9,15.4,12.6-4.9,13.1-11.1h-7.4c-.5,3.3-2.7,4.9-5.8,4.9h0Z"/>
  <path class="st0" d="M352.1,84.7c-4,0-6.7,1.9-8.6,4.4h-.2v-3.6h-15l-4.1,13.1c-.9,2.7-1.7,6.3-1.7,6.3h-.1s-1-3.7-1.9-6.3l-4.3-13.1h-8.1c-3.4,0-5.6,1.4-7.4,4.6h-.2v-4.6h-7.4v29.1h7.7v-14.2c0-5.9,4.5-8.3,9.4-8,.3,0,.5.2.6.5l5,13.3c1.6,4.4,2.2,6.3,2.2,7.9,0,2.4-1.2,4-4.3,4h-2.7v6.1h4.5c5.9,0,8-2.3,10.3-8.8l9.9-29.1v37.9h7.7v-12.8h.1c1.6,2.5,4.3,4.1,8.4,4.1,7.5,0,12.6-6,12.6-15.4s-4.9-15.4-12.6-15.4h0ZM350.5,109c-4.6,0-7-3.5-7-8.7s1.9-9.4,6.7-9.4,6.7,3.9,6.7,9.4-2.5,8.7-6.4,8.7Z"/>
  <path class="st0" d="M377.4,108.9c-1.7,0-2.9-.7-2.9-2.9v-15.4h5v-5.1h-5v-9.1h-7.5v9.1h-4v5.1h4v17.1c0,5.5,4.1,7,7.9,7s4.8-.1,4.8-.1v-5.7s-1.3,0-2.3,0h0Z"/>
  <path class="st0" d="M138.1,84.4l2-2-9-9-2,2c-11.8,11.8-11.8,31,0,42.8s31,11.8,42.8,0l2-2-9-9-2,2c-6.8,6.8-18,6.8-24.8,0-6.8-6.8-6.8-18,0-24.8Z"/>
  <path class="st0" d="M175.8,114.2l-2,2,9,9,2-2c11.8-11.8,11.8-31,0-42.8-11.8-11.8-31-11.8-42.8,0l-2,2,9,9,2-2c6.8-6.8,18-6.8,24.8,0,6.8,6.8,6.8,18,0,24.8Z"/>
</svg>