<?xml version="1.0" encoding="UTF-8"?>
<svg id="Layer_1" xmlns="http://www.w3.org/2000/svg" version="1.1" viewBox="0 0 500 200">
  <!-- Generator: Adobe Illustrator 29.8.2, SVG Export Plug-In . SVG Version: 2.1.1 Build 3)  -->
  <defs>
    <style>
      .st0 {
        fill: #fff;
      }
    </style>
  </defs>
  <path class="st0" d="M164.9,90.1c0,2.2.6,2.4,3.2,2.5v.8h-10v-.8c2.1,0,2.7-.3,2.7-2.5v-14.5c0-2.2-.6-2.4-2.6-2.5v-.8h17.6v4.7c0,0-.8,0-.8,0-.7-2.3-1.6-3.1-5.7-3.1h-3.3c-1,0-1.2.2-1.2,1.1v6.7h3.6c3.4,0,4.1-.6,4.4-2.8h.8v7.5h-.8c-.4-2.5-1.7-3.2-4.4-3.2h-3.6v6.8h0ZM185.8,90.1c0,2.2.6,2.4,3.2,2.5v.8h-10.5v-.8c2.5,0,3.2-.3,3.2-2.5v-14.5c0-2.2-.5-2.4-3.2-2.5v-.8h10.5v.8c-2.5,0-3.2.3-3.2,2.5v14.5ZM210.8,76.1c0-2.1-.5-2.9-2.9-3.2v-.8h7.5v.8c-2.3.3-2.9,1.1-2.9,3.2v17.7h-1.1l-14.5-16.7v12.3c0,2.1.5,2.9,2.9,3.2v.8h-7.5v-.8c2.3-.3,2.9-1.1,2.9-3.2v-14.2c-.7-1.3-1.6-1.9-2.9-2.2v-.8h5.8l12.7,14.7v-10.8h0ZM222.1,85.8l3.2-8.4,3.2,8.4h-6.4ZM237.3,93.4v-.8c-1.7,0-2-.6-2.8-2.6l-7.5-18.3h-1l-7.8,18.9c-.5,1.4-1.3,1.7-2.6,2v.8h6.8v-.8c-1.5,0-2.2-.3-2.2-1.4s1-3.3,1.2-3.9h7.7c.3.7,1.3,3.1,1.3,3.9s-.8,1.4-2.2,1.4v.8h9.1ZM257.9,76.1c0-2.1-.5-2.9-2.9-3.2v-.8h7.5v.8c-2.3.3-2.9,1.1-2.9,3.2v17.7h-1.1l-14.5-16.7v12.3c0,2.1.5,2.9,2.9,3.2v.8h-7.5v-.8c2.3-.3,2.9-1.1,2.9-3.2v-14.2c-.7-1.3-1.6-1.9-2.9-2.2v-.8h5.8l12.7,14.7v-10.7ZM284.7,88.5c-2.2,3.8-5.2,5.5-9.5,5.5-6.9,0-11-4.5-11-11.3s3.8-11,11.2-11,5.4,1.3,5.9,1.3.8-.3,1.4-1.3h1.1l.4,7.1h-.9c-1.3-3.3-3.5-5.7-7.2-5.7s-7.2,5.4-7.2,9.5,2.4,9.6,7.8,9.6,6.4-3.1,7.3-4.4l.7.7ZM294.9,90.1c0,2.2.6,2.4,3.2,2.5v.8h-10.5v-.8c2.5,0,3.2-.3,3.2-2.5v-14.5c0-2.2-.6-2.4-3.2-2.5v-.8h10.5v.8c-2.5,0-3.2.3-3.2,2.5v14.5ZM306.8,85.8l3.2-8.4,3.2,8.4h-6.4ZM322,93.4v-.8c-1.7,0-2-.6-2.8-2.6l-7.5-18.3h-1l-7.8,18.9c-.5,1.4-1.3,1.7-2.6,2v.8h6.8v-.8c-1.5,0-2.2-.3-2.2-1.4s1-3.3,1.2-3.9h7.7c.3.7,1.3,3.1,1.3,3.9s-.8,1.4-2.2,1.4v.8h9.1ZM323.9,93.4v-.8c2,0,2.6-.3,2.6-2.5v-14.5c0-2.2-.6-2.4-2.6-2.5v-.8h9.8v.8c-2.3,0-2.9.3-2.9,2.5v14.9c0,1.3.3,1.7,2.7,1.7,3.8,0,6-.7,7.9-4.4h.8l-1.5,5.7h-16.8v-.2h.2ZM162.6,126.9c2.4,0,3-.3,3-2.5v-16.3h-2.6c-2.4,0-3.5,1-4.1,3.9h-.9l.5-5.4h18.6l.5,5.4h-.9c-.7-2.9-1.7-3.9-4.1-3.9h-2.6v16.3c0,2.2.6,2.4,3,2.5v.8h-10.2v-.8h-.3ZM187.1,124.4c0,2.2.6,2.4,3.2,2.5v.8h-10.5v-.8c2.5,0,3.2-.3,3.2-2.5v-14.5c0-2.2-.6-2.4-3.2-2.5v-.8h10.5v.8c-2.5,0-3.2.3-3.2,2.5v14.5ZM212.5,106.4h7.3v.8c-2,0-2.6.3-2.6,2.5v14.6c0,2.2.6,2.4,2.6,2.5v.8h-9.6v-.8c2.1,0,2.7-.3,2.7-2.5v-14.9h0l-7.1,18.6h-1l-7-18.6h0v14.3c0,2.1.5,2.9,2.9,3.2v.8h-7.5v-.8c2.3-.3,2.9-1.1,2.9-3.2v-14.5c0-1.5-.6-2-2.9-2v-.8h7.7l5.6,14.7,6.1-14.7ZM222.8,127.7v-.8c2,0,2.6-.3,2.6-2.5v-14.5c0-2.2-.6-2.4-2.6-2.5v-.8h17.7v4.7c0,0-.8,0-.8,0-.7-2.3-1.6-3.1-5.7-3.1h-3.3c-1,0-1.2.2-1.2,1.1v6.7h3.6c3.4,0,4.1-.6,4.4-2.8h.8v7.5h-.8c-.4-2.5-1.7-3.1-4.4-3.1h-3.6v7.3c0,1.3.3,1.7,4.1,1.7s6-.7,7.9-4.4h.8l-1.5,5.7h-18.2v-.3h.2ZM245.2,121h.8c.9,2.8,3.6,5.8,6.7,5.8s3.6-1.9,3.6-3.5c0-4.9-11-5.8-11-11.8s2.8-5.4,6-5.4,4.3,1.1,5.7,1.1,1-.4,1.1-1.1h.8v6.8h-.8c-.9-3.1-3.1-5.4-6-5.4s-3.3,1.6-3.3,3c0,4.3,11,4.4,11,11.9s-2.7,5.9-6.6,5.9-4.7-1.3-6.1-1.3-.9.3-1.1,1.1h-1.1l.2-7.1Z"/>
</svg>