<?xml version="1.0" encoding="UTF-8"?>
<svg id="Layer_1" xmlns="http://www.w3.org/2000/svg" version="1.1" viewBox="0 0 500 200">
  <!-- Generator: Adobe Illustrator 29.8.2, SVG Export Plug-In . SVG Version: 2.1.1 Build 3)  -->
  <defs>
    <style>
      .st0 {
        fill: #fff;
      }
    </style>
  </defs>
  <path class="st0" d="M260,88.8c0-4.4,0-8.4.3-12.2l-11.5,2.2v1.1l1.1.2c.8,0,1.4.4,1.7.8.3.5.5,1.3.7,2.4.2,2.2.3,7.1.2,15,0,7.7,0,12.6-.2,14.5,4.1.9,7.4,1.3,9.8,1.3,4.5,0,8.1-1.3,10.6-3.9,2.6-2.6,3.9-6.2,3.9-10.6s-1-6.5-2.9-8.8c-2-2.3-4.4-3.5-7.4-3.5s-4,.5-6.2,1.6ZM260.2,112c-.2-2.4-.3-9.6-.3-21.4.7-.2,1.6-.4,2.7-.4,1.8,0,3.2.9,4.3,2.8,1.1,1.9,1.6,4.1,1.6,7s-.6,6.4-1.8,8.8c-1.2,2.3-2.7,3.5-4.6,3.5-.6-.2-1.2-.2-1.9-.3ZM205.6,77.4h-30.1v1.5l1.6.2c1.2.2,2,.7,2.6,1.4.5.8.8,2,.9,3.6.6,8.1.6,15.7,0,22.7-.2,1.7-.5,2.9-.9,3.6-.5.8-1.4,1.2-2.6,1.4l-1.6.2v1.5h19.4v-1.5l-2-.2c-1,0-1.9-.6-2.6-1.4-.5-.8-.8-2-.9-3.6-.2-3-.4-6.5-.4-10.3h4.1c2.2.2,3.7,1.8,4.4,5.1h1.5v-12.3h-1.5c-.8,3.2-2.2,4.9-4.4,5h-4.1c0-6.7.2-11.5.4-14.4h5.9c4.2,0,7.1,2.7,8.7,8.1l1.8-.5-.3-10.1ZM202,100.6c0,3.9,1.1,7.1,3.3,9.7,2.2,2.6,5.4,3.8,9.5,3.8s7.4-1.3,9.8-3.9c2.4-2.6,3.5-5.8,3.5-9.7s-1.1-7.1-3.3-9.7-5.4-3.8-9.5-3.8-7.4,1.3-9.8,3.9c-2.4,2.6-3.5,5.8-3.5,9.7ZM218.8,92c.9,2.2,1.3,5,1.3,8.5,0,8-1.7,11.9-4.9,11.9s-2.9-1.1-3.8-3.4c-.9-2.3-1.3-5.1-1.3-8.5,0-7.9,1.7-11.8,4.9-11.8,1.7,0,2.9,1.1,3.8,3.3ZM282.4,110.3c2.5,2.5,5.6,3.8,9.4,3.8s4.4-.5,6.2-1.4c1.8-.9,3.2-2,4.2-3.4l-.8-.9c-1.7,1.3-3.5,1.9-5.7,1.9s-5.3-1-6.9-3c-1.7-2-2.4-4.6-2.3-7.9h16.1c0-3.6-.9-6.5-2.8-8.9-1.9-2.3-4.5-3.4-7.9-3.4s-7.4,1.4-9.8,4-3.5,5.9-3.5,9.7,1.2,7.1,3.7,9.6h0ZM288,91.4c.8-1.8,1.9-2.7,3.3-2.7,2.3,0,3.4,2.9,3.4,8.7l-8,.2c0-2.3.5-4.3,1.3-6.1h0ZM322.9,88.4c-2-.9-4.6-1.4-7.7-1.4s-5.6.8-7.5,2.4-2.9,3.5-2.9,5.9.6,3.6,1.7,4.7,2.9,2.1,5.3,2.9c2.1.8,3.6,1.5,4.4,2.2.8.8,1.2,1.6,1.2,2.7s-.4,2-1.2,2.8c-.8.8-1.8,1.2-3.2,1.2-3.3,0-5.8-2.4-7.5-7.2l-1.3.4.3,7.5c2.7,1.1,5.7,1.6,9,1.6s6.1-.8,8.1-2.3c2-1.5,2.9-3.7,2.9-6.4s-.5-3.3-1.4-4.4c-1-1.1-2.6-2.1-4.8-3-2.5-.9-4.2-1.7-5.1-2.5s-1.4-1.7-1.4-2.8.3-2,1-2.8,1.5-1.1,2.6-1.1c3,0,5.2,2.2,6.5,6.5l1.3-.4-.3-6.5ZM250.5,87.7c-1.1-.5-2.2-.8-3.5-.8s-2.6.5-4,1.6-2.5,2.5-3.3,4.4v-6c0,0-11.4,2.3-11.4,2.3v1.1h1.1c1.4.2,2.3,1.4,2.4,3.4.5,4.7.5,9.6,0,14.9-.2,2-1,3.1-2.4,3.3l-1.1.2v1.4h16v-1.4l-2-.2c-1.4-.2-2.3-1.3-2.4-3.3-.5-4.4-.5-9-.2-13.8.5-.8,1.4-1.2,2.9-1.4,1.5-.2,3.2.3,5,1.4,0,0,2.8-7,2.8-7Z"/>
</svg>