<?xml version="1.0" encoding="UTF-8"?>
<svg id="Layer_1" xmlns="http://www.w3.org/2000/svg" version="1.1" viewBox="0 0 500 200">
  <!-- Generator: Adobe Illustrator 29.8.2, SVG Export Plug-In . SVG Version: 2.1.1 Build 3)  -->
  <defs>
    <style>
      .st0 {
        fill: #fff;
      }
    </style>
  </defs>
  <path class="st0" d="M163.6,87.1l-.5,2.8h0c-.7-1.6-2.8-3.8-7.2-3.8-7.2,0-14.5,5.6-16.1,14.3-1.4,7.7,2.3,14.4,10.8,14.4s6.8-1.3,8.6-3.9h0l-.5,2.9h7.9l5-26.9h-7.8ZM161.1,100.5c-.5,2.6-3,6.9-8,6.9s-5.9-4.3-5.4-6.8c.5-3.1,3.3-6.9,7.9-6.9s6,3.6,5.5,6.8h0ZM176,87.1h7.5l-.5,2.8h0c1-1.3,2.8-3.8,7.5-3.8l-1.4,8.1c-3.8,0-6.6.8-7.2,5l-2.8,14.8h-8.2l5.1-26.9ZM196,76.6h8.1l-3.8,20.3h.2l9.3-9.7h9.5l-12.4,11.8,7.1,15.1h-9.1l-5.2-13h0l-2.4,13h-8l6.8-37.4ZM232.2,86.1c-8.1,0-15.4,7-16.8,14.5-1.4,7.9,3.9,14.3,11.6,14.3,2.9,0,5.7-.9,8.1-2.4,2.5-1.5,4.9-3.9,6.8-6.9h-8.2c-1.4,1.4-2.9,2.5-5.4,2.5s-5.4-1.9-5.4-5.1h20.2c.3-.6.4-1.1.5-2.1,1.5-8.3-3.2-14.9-11.5-14.9h0ZM224.1,97.6c.6-1.6,2.8-4.6,7-4.6s5.2,3,5.2,4.6h-12.3ZM127.7,114h8v-37.5h-6.9l-14.3,21.3h0v-21.3h-6.9l-25.2,37.5h9.7l14.2-21.3h0v21.3h6.9l14.1-21.3h.2v21.3ZM264.1,87.1h-5.1l1.4-7.9h-7l-.5,3.1c-.6,3.5-2.8,4.6-5.8,4.9h0l-1.3,6h4l-3.9,20.8h8l3.9-20.8h5.1l1.2-6Z"/>
  <path class="st0" d="M388.6,103.8c-2.6,6.1-8.9,11.1-16.1,11.1s-13.3-6.4-11.7-14.4c1.4-7.9,8.8-14.3,16.9-14.3s12,4.8,12.1,11.3h-8.1c-.5-1.9-1.7-3.8-5.1-3.8-3.8-.2-6.9,3-7.7,6.8-.7,3.9,1.3,6.9,5.1,6.9s5.4-1.9,6.5-3.6h8.2,0ZM321.8,67l-15.6,9.6h4.4l-14.2,21.3h-.2v-21.3h-7l-14.2,21.3h0v-21.3h-8.1v37.5h7l14.2-21.3h0v21.3h6.9l25.1-37.5h4l-2.4-9.6ZM337.2,114h-7.9l.5-2.9h0c-1.9,2.6-5.4,3.9-8.6,3.9-8.6,0-12.3-6.8-10.8-14.4,1.6-8.8,9-14.3,16.1-14.3s6.5,2.2,7.2,3.8h0l.5-2.8h7.9l-5.1,26.8ZM323.6,107.4c5,0,7.5-4.3,8-6.9.5-3.2-1-6.8-5.5-6.8s-7.4,3.9-7.9,6.9c-.5,2.5.5,6.8,5.4,6.8h0ZM362.4,87.1h-5.1l1.4-7.9h-7l-.5,3.1c-.6,3.5-2.8,4.6-5.8,4.9h0l-1.2,6h4l-3.9,20.8h8l3.9-20.8h5.1l1.1-6ZM396.2,76.6h8l-2.4,13.4h0c1.7-2.5,4.1-3.8,7.6-3.8s5.4,1,6.8,3c1.7,2.6,1.5,5,.6,9.8l-2.8,15h-8l2.7-14.6c.3-1.3,1-5.7-3.2-5.7s-5.2,4.1-5.5,5.4l-2.8,14.9h-7.9l6.9-37.4Z"/>
</svg>