<?xml version="1.0" encoding="UTF-8"?>
<svg id="Layer_1" xmlns="http://www.w3.org/2000/svg" version="1.1" viewBox="0 0 500 200">
  <!-- Generator: Adobe Illustrator 29.8.2, SVG Export Plug-In . SVG Version: 2.1.1 Build 3)  -->
  <defs>
    <style>
      .st0 {
        fill: #fff;
      }
    </style>
  </defs>
  <g id="layer1">
    <path id="path260" class="st0" d="M354.9,115.2h6.3v-18.3c0-8.5-4.6-11.7-12.6-11.7s-7.7.9-10.1,2.3v5.6h.3c2.7-1.4,5.6-2.2,8.6-2.1,4.5,0,6.5,1.4,6.5,6.1h0c0,0-5.9,1-5.9,1-7.1,1-11.8,3.1-11.8,9.2s4.2,8.6,9.9,8.6,6.7-1.9,8.3-4l.6,3.2h0ZM353.9,107.9c-1.2,1.6-3.1,2.9-6,2.9s-4.5-1.5-4.5-3.8,1.7-3.6,6.2-4.3l4.3-.7v6M325.6,81.3h7.4v-6.4h-7.4s0,6.4,0,6.4ZM325.7,115.2h7.3v-29.4h-7.3v29.4ZM300.8,113.2c2.3,1.5,5.2,2.6,10.1,2.6s11.5-3.3,11.5-9.6-2.9-7.2-8.7-8.8l-2.8-.7c-2.3-.6-3.3-1.5-3.3-3.1s1-3,4.3-3,5.8.7,8.4,2l.3-.2v-5.6c-2.3-1-4.9-1.7-8.7-1.7-6.7,0-10.9,3.5-10.9,9s3,7.4,7.6,8.6l2.9.8c3,.8,4.1,1.4,4.1,3.4s-1.7,3.3-4.9,3.3-6.7-1.1-9.3-3.2h-.3v6.1M290.7,115.2h7.4v-.4l-16.2-39.2h-3.2l-16.2,39.2v.4h7.4l3.1-8.1h14.3l3.2,8.1h0ZM285.2,101.6h-9.8l4.8-12.9,4.8,12.9h0ZM250.4,115.2h3.7v-29.2h-3.7v29.2ZM229.5,115.2h15.6v-3.2h-11.8v-10.3h10.3v-3.2h-10.3v-9.2h11.8v-3.2h-15.6v29.2h0ZM221.5,115.2h4.2v-.2l-11.1-17.1,10.4-11.6v-.2h-4l-12.8,14.3v-14.3h-3.7v29.2h3.7v-10.5l3.8-4.2,9.5,14.6h0ZM196.4,115.2h4.2v-.2l-11.1-17.1,10.4-11.6v-.2h-4l-12.8,14.3v-14.3h-3.7v29.2h3.7v-10.5l3.8-4.2,9.5,14.6h0ZM169.1,115.2h3.7v-29.2h-3.7v29.2ZM161.4,115.2l-18.9-21.7v21.7h-3.6v-29.2h1.3l18.9,21.6v-21.6h3.6v29.2h-1.3Z"/>
  </g>
</svg>