<?xml version="1.0" encoding="UTF-8"?>
<svg id="Layer_1" xmlns="http://www.w3.org/2000/svg" version="1.1" viewBox="0 0 500 200">
  <!-- Generator: Adobe Illustrator 29.8.2, SVG Export Plug-In . SVG Version: 2.1.1 Build 3)  -->
  <defs>
    <style>
      .st0 {
        fill: #fff;
      }
    </style>
  </defs>
  <path class="st0" d="M185.5,107c-1.2,0-2.3.6-3,1.6-.6,1-.6,2.3,0,3.4s1.7,1.7,3,1.6c1.8,0,3.3-1.5,3.3-3.3,0-1.8-1.4-3.3-3.3-3.3Z"/>
  <path class="st0" d="M181.3,115.6c-1.6,0-2.9,1.3-2.9,2.8s1.3,2.9,2.9,2.9,2.9-1.3,2.9-2.9-1.3-2.8-2.9-2.8Z"/>
  <circle class="st0" cx="175" cy="124.9" r="2.5"/>
  <path class="st0" d="M167.9,127c-1.1,0-2,.9-2,2s.9,2,2,2,2-.9,2-2c0-1.1-.9-2-2-2Z"/>
  <path class="st0" d="M161,129.4c-.9,0-1.7.8-1.7,1.7s.8,1.7,1.7,1.7,1.7-.8,1.7-1.7c0-.9-.7-1.7-1.7-1.7Z"/>
  <path class="st0" d="M154.5,130.4c-.8,0-1.5.7-1.5,1.5s.7,1.5,1.5,1.5,1.5-.7,1.5-1.5c0-.8-.7-1.5-1.5-1.5Z"/>
  <path class="st0" d="M148,129.4c-.9,0-1.7.8-1.7,1.7s.8,1.7,1.7,1.7,1.7-.8,1.7-1.7-.8-1.7-1.7-1.7Z"/>
  <path class="st0" d="M141,127c-.7,0-1.4.4-1.7,1-.4.6-.4,1.4,0,2,.4.6,1,1,1.7,1,1.1,0,2-.9,2-2,0-1-.9-1.9-2-1.9Z"/>
  <path class="st0" d="M133.9,122.4c-.9,0-1.7.5-2.1,1.2-.5.8-.5,1.7,0,2.5s1.2,1.2,2.1,1.2c1.3,0,2.5-1.1,2.5-2.5s-1.1-2.5-2.5-2.5Z"/>
  <path class="st0" d="M127.6,115.6c-1.6,0-2.9,1.3-2.9,2.9s1.3,2.9,2.9,2.9,2.9-1.3,2.9-2.9c0-1.6-1.3-2.9-2.9-2.9Z"/>
  <path class="st0" d="M123.4,107c-1.2,0-2.3.6-3,1.6-.6,1-.6,2.3,0,3.4.6,1,1.7,1.7,3,1.6,1.8,0,3.3-1.5,3.3-3.3s-1.5-3.3-3.3-3.3Z"/>
  <path class="st0" d="M121.9,96.1c-2.1,0-3.9,1.7-3.9,3.9s1.7,3.9,3.9,3.9,3.9-1.7,3.9-3.9c0-2.1-1.7-3.9-3.9-3.9Z"/>
  <path class="st0" d="M123.4,86.3c-1.2,0-2.3.6-3,1.6-.6,1-.6,2.3,0,3.4.6,1,1.7,1.7,3,1.6,1.8,0,3.3-1.5,3.3-3.3s-1.5-3.3-3.3-3.3Z"/>
  <path class="st0" d="M127.6,78.6c-1,0-2,.5-2.5,1.4-.5.9-.5,2,0,2.9.5.9,1.5,1.4,2.5,1.4,1.5,0,2.8-1.3,2.8-2.9,0-1.5-1.3-2.8-2.8-2.9Z"/>
  <path class="st0" d="M133.9,72.6c-1.3,0-2.5,1.1-2.5,2.5s1.1,2.5,2.5,2.5,2.5-1.1,2.5-2.5-1.1-2.5-2.5-2.5Z"/>
  <path class="st0" d="M141,69c-1.1,0-2,.9-2,2s.9,2,2,2,2-.9,2-2c0-1.1-.9-2-2-2Z"/>
  <path class="st0" d="M148,67.1c-1,0-1.7.8-1.7,1.7s.8,1.7,1.7,1.7,1.7-.8,1.7-1.7c0-1-.8-1.8-1.7-1.8h0Z"/>
  <path class="st0" d="M154.5,66.6c-.8,0-1.5.7-1.5,1.5s.7,1.5,1.5,1.5,1.5-.7,1.5-1.5-.7-1.5-1.5-1.5Z"/>
  <path class="st0" d="M161,67.1c-.9,0-1.7.8-1.7,1.7s.8,1.7,1.7,1.7,1.7-.8,1.7-1.7c0-.9-.7-1.7-1.7-1.7Z"/>
  <path class="st0" d="M167.9,69c-.7,0-1.4.4-1.7,1-.4.6-.4,1.4,0,2s1,1,1.7,1c1.1,0,2-.9,2-2s-.9-1.9-2-1.9h0Z"/>
  <path class="st0" d="M175,72.7c-1.3,0-2.5,1.1-2.5,2.5s1.1,2.5,2.5,2.5,2.5-1.1,2.5-2.5-1.1-2.5-2.5-2.5Z"/>
  <path class="st0" d="M181.3,78.6c-1.6,0-2.9,1.3-2.9,2.9s1.3,2.9,2.9,2.9,2.9-1.3,2.9-2.9-1.3-2.9-2.9-2.9Z"/>
  <path class="st0" d="M185.5,86.3c-1.2,0-2.3.6-3,1.6-.6,1-.6,2.3,0,3.4s1.7,1.7,3,1.6c1.8,0,3.3-1.5,3.3-3.3s-1.4-3.3-3.3-3.3Z"/>
  <path class="st0" d="M170.2,105.1c-.6,0-1.1.3-1.3.7s-.3,1.1,0,1.5.8.8,1.3.7c.8,0,1.4-.7,1.4-1.5,0-.8-.6-1.4-1.4-1.5h0Z"/>
  <path class="st0" d="M166.5,110.6c-.6,0-1.1.3-1.3.7s-.3,1.1,0,1.5.8.8,1.3.7c.8,0,1.4-.7,1.4-1.5s-.6-1.4-1.4-1.5Z"/>
  <path class="st0" d="M160.9,114.2c-.6,0-1.1.3-1.4.8-.3.5-.3,1.1,0,1.6s.8.8,1.4.8c.9,0,1.6-.7,1.6-1.6s-.7-1.6-1.6-1.6h0Z"/>
  <path class="st0" d="M154.4,115.2c-1.2,0-2.2,1-2.2,2.2s1,2.2,2.2,2.2,2.2-1,2.2-2.2c0-1.2-1-2.2-2.2-2.2Z"/>
  <path class="st0" d="M147.8,113.9c-1.4,0-2.5,1.1-2.5,2.5s1.1,2.5,2.5,2.5,2.5-1.1,2.5-2.5c0-1.4-1.1-2.5-2.5-2.5Z"/>
  <path class="st0" d="M141.9,109.7c-1.5,0-2.8,1.2-2.8,2.8s1.2,2.8,2.8,2.8,2.8-1.2,2.8-2.8-1.2-2.8-2.8-2.8Z"/>
  <path class="st0" d="M138,104.1c-1.3,0-2.3,1-2.3,2.3s1,2.3,2.3,2.3,2.3-1,2.3-2.3c0-1.2-1-2.3-2.3-2.3Z"/>
  <path class="st0" d="M137,97.9c-1,0-1.8.8-1.8,1.8s.8,1.8,1.8,1.8,1.8-.8,1.8-1.8-.8-1.8-1.8-1.8Z"/>
  <path class="st0" d="M138.6,91.9c-.8,0-1.5.7-1.5,1.5s.7,1.5,1.5,1.5,1.5-.7,1.5-1.5c0-.8-.7-1.5-1.5-1.5h0Z"/>
  <path class="st0" d="M142.4,86.4c-.6,0-1.1.3-1.3.7s-.3,1.1,0,1.5.8.8,1.3.7c.8,0,1.5-.7,1.5-1.5,0-.8-.7-1.5-1.5-1.5h0Z"/>
  <path class="st0" d="M147.9,82.5c-.9,0-1.6.7-1.6,1.6s.7,1.6,1.6,1.6,1.6-.7,1.6-1.6-.7-1.6-1.6-1.6h0Z"/>
  <circle class="st0" cx="154.5" cy="82.6" r="2.2"/>
  <path class="st0" d="M161,81.1c-1.4,0-2.5,1.1-2.5,2.5s1.1,2.5,2.5,2.5,2.5-1.1,2.5-2.5c0-1.4-1.1-2.5-2.5-2.5Z"/>
  <path class="st0" d="M167,84.8c-1.5,0-2.8,1.2-2.8,2.8s1.2,2.8,2.8,2.8,2.8-1.2,2.8-2.8-1.2-2.8-2.8-2.8Z"/>
  <path class="st0" d="M170.9,91.3c-1.3,0-2.3,1-2.3,2.3s1,2.3,2.3,2.3,2.3-1,2.3-2.3-1-2.3-2.3-2.3Z"/>
  <circle class="st0" cx="164.9" cy="102.8" r="1.4"/>
  <path class="st0" d="M162.2,105.7c-1.1,0-2,.9-2,2s.9,2,2,2,2-.9,2-2c0-1.1-.9-2-2-2Z"/>
  <path class="st0" d="M156.9,108.5c-1.2,0-2.1,1-2.1,2.1s1,2.1,2.1,2.1,2.1-1,2.1-2.1c0-1.2-1-2.1-2.1-2.1Z"/>
  <path class="st0" d="M150.7,108.3c-.7,0-1.3.4-1.6,1-.4.6-.4,1.3,0,1.9.4.6,1,1,1.6,1,1.1,0,1.9-.9,1.9-1.9,0-1.1-.8-1.9-1.9-1.9Z"/>
  <path class="st0" d="M146.1,105.2c-.8,0-1.4.6-1.4,1.4s.6,1.4,1.4,1.4,1.4-.6,1.4-1.4c0-.7-.6-1.4-1.4-1.4Z"/>
  <path class="st0" d="M144.2,101.2c-.6,0-1,.5-1,1s.5,1,1,1,1-.5,1-1-.5-1-1-1Z"/>
  <path class="st0" d="M144.1,95.9c-.8,0-1.4.6-1.4,1.4s.6,1.4,1.4,1.4,1.4-.6,1.4-1.4-.6-1.4-1.4-1.4h0Z"/>
  <path class="st0" d="M146.8,90.3c-1.1,0-2,.9-2,2s.9,2,2,2,2-.9,2-2-.9-2-2-2Z"/>
  <path class="st0" d="M152.1,87.3c-1.2,0-2.1,1-2.1,2.1s1,2.1,2.1,2.1,2.1-1,2.1-2.1-1-2.1-2.1-2.1Z"/>
  <path class="st0" d="M158.3,88c-.7,0-1.3.4-1.7.9-.4.6-.4,1.3,0,1.9s1,1,1.7.9c1,0,1.8-.9,1.8-1.9s-.8-1.8-1.8-1.9Z"/>
  <path class="st0" d="M162.9,92.1c-.8,0-1.4.6-1.4,1.4s.6,1.4,1.4,1.4,1.4-.6,1.4-1.4c0-.8-.6-1.4-1.4-1.4h0Z"/>
  <path class="st0" d="M164.8,96.9c-.6,0-1,.5-1,1s.5,1,1,1,1-.5,1-1-.5-1-1-1Z"/>
  <path class="st0" d="M171.8,98.5c-1,0-1.8.8-1.8,1.8s.8,1.8,1.8,1.8,1.8-.8,1.8-1.8-.8-1.8-1.8-1.8h0Z"/>
  <path class="st0" d="M179.2,100.7c-1.1,0-1.9.9-1.9,1.9s.9,1.9,1.9,1.9,1.9-.9,1.9-1.9-.8-1.9-1.9-1.9Z"/>
  <path class="st0" d="M177.3,107.4c-1,0-1.8.8-1.8,1.8s.8,1.8,1.8,1.8,1.8-.8,1.8-1.8-.8-1.8-1.8-1.8h0Z"/>
  <path class="st0" d="M174.1,113c-.8,0-1.5.7-1.5,1.5s.7,1.5,1.5,1.5,1.5-.7,1.5-1.5-.7-1.5-1.5-1.5h0Z"/>
  <path class="st0" d="M170.2,117.2c-.5,0-.9.3-1.2.7s-.3.9,0,1.3c.3.4.7.7,1.2.7s1.3-.6,1.3-1.3-.6-1.3-1.3-1.3h0Z"/>
  <path class="st0" d="M166.1,120.2c-.6,0-1.1.5-1.1,1.1s.5,1.1,1.1,1.1,1.1-.5,1.1-1.1-.5-1.1-1.1-1.1h0Z"/>
  <path class="st0" d="M161.5,122c-.7,0-1.3.6-1.3,1.3s.6,1.3,1.3,1.3,1.3-.6,1.3-1.3c0-.8-.6-1.3-1.3-1.3h0Z"/>
  <path class="st0" d="M156,122.8c-.8,0-1.5.7-1.5,1.5s.7,1.5,1.5,1.5,1.5-.7,1.5-1.5c0-.9-.7-1.5-1.5-1.5Z"/>
  <path class="st0" d="M149.8,122.2c-1.1,0-1.9.9-1.9,1.9s.9,1.9,1.9,1.9,1.9-.9,1.9-1.9-.9-1.9-1.9-1.9h0Z"/>
  <path class="st0" d="M143.2,119.9c-1.3,0-2.3,1-2.3,2.3s1,2.3,2.3,2.3,2.3-1,2.3-2.3c0-1.3-1-2.3-2.3-2.3Z"/>
  <path class="st0" d="M137.5,115.5c-1,0-1.9.5-2.4,1.3-.5.9-.5,1.9,0,2.8.5.9,1.4,1.4,2.4,1.3,1.5,0,2.7-1.2,2.7-2.7s-1.2-2.7-2.7-2.7Z"/>
  <path class="st0" d="M132.6,109c-1.6,0-3,1.3-3,3s1.3,3,3,3,3-1.3,3-3c0-1.7-1.3-3-3-3Z"/>
  <circle class="st0" cx="129.9" cy="104.4" r="2.3"/>
  <circle class="st0" cx="129.7" cy="97.4" r="1.9"/>
  <path class="st0" d="M131.6,89c-1,0-1.8.8-1.8,1.8s.8,1.8,1.8,1.8,1.8-.8,1.8-1.8-.8-1.8-1.8-1.8h0Z"/>
  <path class="st0" d="M134.8,83.9c-.6,0-1.1.3-1.3.8-.3.5-.3,1.1,0,1.5s.8.8,1.3.8c.8,0,1.5-.7,1.5-1.5s-.7-1.5-1.5-1.5Z"/>
  <path class="st0" d="M138.7,80.2c-.7,0-1.3.6-1.3,1.3s.6,1.3,1.3,1.3,1.3-.6,1.3-1.3c0-.7-.6-1.3-1.3-1.3Z"/>
  <path class="st0" d="M142.8,77.5c-.6,0-1.1.5-1.1,1.1s.5,1.1,1.1,1.1,1.1-.5,1.1-1.1-.5-1.1-1.1-1.1Z"/>
  <path class="st0" d="M147.5,75.4c-.7,0-1.3.6-1.3,1.3s.6,1.3,1.3,1.3,1.3-.6,1.3-1.3-.6-1.3-1.3-1.3Z"/>
  <path class="st0" d="M152.9,74.1c-.6,0-1.1.3-1.3.8-.3.5-.3,1.1,0,1.5s.8.8,1.3.8c.8,0,1.5-.7,1.5-1.5s-.7-1.5-1.5-1.5Z"/>
  <path class="st0" d="M159.1,73.8c-.7,0-1.4.4-1.7,1-.4.6-.4,1.4,0,2,.4.6,1,1,1.7,1,1.1,0,1.9-.9,1.9-2s-.9-1.9-1.9-1.9Z"/>
  <path class="st0" d="M165.5,75.3c-1.3,0-2.3,1-2.3,2.3s1,2.3,2.3,2.3,2.3-1,2.3-2.3-1.1-2.3-2.3-2.3h0Z"/>
  <path class="st0" d="M171.6,79c-1.5,0-2.7,1.2-2.7,2.7s1.2,2.7,2.7,2.7,2.7-1.2,2.7-2.7c0-1.5-1.2-2.7-2.7-2.7Z"/>
  <path class="st0" d="M176.4,85.1c-1.1,0-2,.6-2.6,1.5-.6.9-.6,2,0,3s1.5,1.5,2.6,1.5c1.6,0,2.9-1.3,2.9-3,0-1.6-1.3-2.9-2.9-3Z"/>
  <path class="st0" d="M179.1,93.2c-.8,0-1.6.4-2,1.1s-.4,1.6,0,2.3c.4.7,1.2,1.2,2,1.1,1.3,0,2.2-1.1,2.2-2.3s-1-2.2-2.2-2.3h0Z"/>
  <path class="st0" d="M191,100c0,2.1-1.7,3.9-3.9,3.9s-3.9-1.7-3.9-3.9,1.7-3.9,3.9-3.9c2.1,0,3.9,1.8,3.9,3.9Z"/>
  <path class="st0" d="M382,105.9c0-3.7-2.1-5.6-5.4-6.9-2.6-1-4.8-1.9-6.5-2.6-1.7-.7-3.2-1.8-3.2-3.1s2.1-2.8,5-2.8,6,.5,8.5.7h.1c.4,0,.7-.3.7-.7v-2.9c0-.4-.3-.7-.7-.7-1.3-.3-4.7-1-8.4-1-7.1,0-10.6,3.1-10.6,7.4s1.2,5.4,4.5,6.7,10.3,3,10.3,5.9-1,3.5-4.5,3.5-7.2-.5-8.7-.7h-.1c-.4,0-.7.3-.7.7v2.8c0,.4.4.7.7.8,1.8.4,5.3,1,8.7,1,7.8.1,10.2-4.1,10.2-8Z"/>
  <path class="st0" d="M306.4,90.7h-7.7v22.2c0,.4-.4.8-.8.8h-3.8c-.4,0-.8-.4-.8-.8v-22.2h-7.7c-.4,0-.8-.3-.8-.7v-3.1c0-.4.4-.7.8-.7h20.8c.4,0,.8.3.8.7v3.1c0,.5-.4.7-.8.7h0Z"/>
  <path class="st0" d="M281.5,103.1v-16.1c0-.4-.4-.7-.8-.7h-3.8c-.4,0-.8.3-.8.7v16c0,4.4-2,6.5-6.2,6.5s-6.2-2.1-6.2-6.5v-16c0-.4-.4-.7-.8-.7h-3.8c-.4,0-.8.3-.8.7v16c0,8.2,5.4,10.9,11.5,10.9,6.2,0,11.5-2.7,11.5-10.9Z"/>
  <path class="st0" d="M316.1,101.8h12.4c.4,0,.8-.4.8-.8v-2.8c0-.4-.4-.8-.8-.8h-12.4v-3.5c0-3.2.1-3.3,3.1-3.3h9.8c.4,0,.8-.4.8-.8v-2.5c0-.6-.2-.7-.8-.8-1.2-.2-3.7-.6-8.3-.6s-9.8,0-9.8,7.9v12.2c0,8,3.4,7.9,9.8,7.9s7.1-.4,8.3-.6c.6,0,.8-.3.8-.8v-2.5c0-.4-.4-.8-.8-.8h-9.8c-2.9,0-3.1-.1-3.1-3.3v-4.3h0Z"/>
  <path class="st0" d="M239.9,101.8h12.4c.4,0,.8-.4.8-.8v-2.8c0-.4-.4-.8-.8-.8h-12.4v-3.5c0-3.2.1-3.3,3.1-3.3h9.8c.4,0,.8-.4.8-.8v-2.5c0-.6-.2-.7-.8-.8-1.2-.2-3.7-.6-8.3-.6s-9.8,0-9.8,7.9v12.2c0,8,3.4,7.9,9.8,7.9s7.1-.4,8.3-.6c.6,0,.8-.3.8-.8v-2.5c0-.4-.4-.8-.8-.8h-9.8c-2.9,0-3.1-.1-3.1-3.3v-4.3h0Z"/>
  <path class="st0" d="M358.4,112.9l-6-10.3c3.2-1.2,5.2-3.5,5.2-7.6v-.3c0-6.6-5.5-8.7-11.4-8.7s-7.1.2-9.1.5c-.8.1-1.2.4-1.2,1.2v25.3c0,.4.4.8.8.8h3.9c.4,0,.7-.4.7-.8v-9.5c.9,0,4,.2,5,.2h.9l5.6,9.3c.2.4.4.8.8.8h4.7c.3,0,.5-.2.5-.5,0-.1,0-.2-.1-.3ZM352.2,95c0,3.4-2.1,4.1-6.1,4.1s-4.4-.1-5-.1v-8.3c.7-.1,4.2-.2,5-.2,3.9,0,6.1,1.2,6.1,4.1v.3Z"/>
  <path class="st0" d="M230.4,112.9l-6.1-10.3c3.2-1.2,5.2-3.5,5.2-7.6v-.3c0-6.6-5.5-8.7-11.4-8.7s-7.1.2-9.1.5c-.8.1-1.2.4-1.2,1.2v25.3c0,.4.4.8.8.8h3.9c.4,0,.7-.4.7-.8v-9.5c.9,0,4,.2,5,.2h.9l5.6,9.3c.2.4.4.8.8.8h4.7c.3,0,.5-.2.5-.5,0-.1,0-.2,0-.3ZM224.2,95c0,3.4-2.1,4.1-6.1,4.1s-4.4-.1-5-.1v-8.3c.7-.1,4.2-.2,5-.2,3.9,0,6.1,1.2,6.1,4.1v.3Z"/>
</svg>