<?xml version="1.0" encoding="UTF-8"?>
<svg id="Layer_1" xmlns="http://www.w3.org/2000/svg" version="1.1" viewBox="0 0 600 200">
  <!-- Generator: Adobe Illustrator 29.8.2, SVG Export Plug-In . SVG Version: 2.1.1 Build 3)  -->
  <defs>
    <style>
      .st0 {
        fill: #fff;
      }
    </style>
  </defs>
  <g id="Layer_11">
    <g>
      <g>
        <path class="st0" d="M304.9,111.7h-11v-.5h1.1c.7-.2,1-.3,1-1.2v-13.7c0-1.3-.7-2.2-2.1-2.2s-3.1,1.4-3.1,2.8v12.8c0,1.1.3,1.2,1.1,1.3h1v.6h-10.8v-.5l1-.2c.5,0,.9,0,.9-1.2v-13.7c0-1.9-.4-2.5-2.3-2.8v-.5l9-2.2v3.6c1.7-1.6,3.8-3.6,6.8-3.6s5.4,2.3,5.4,5.2v14c0,1,.4,1.1,1.1,1.2h1v.8h-.1Z"/>
        <path class="st0" d="M279.4,85.7c0,1.9-1.6,3.5-3.7,3.5s-3.6-1.5-3.6-3.5,1.5-3.5,3.6-3.5,3.7,1.5,3.7,3.5Z"/>
        <path class="st0" d="M281.3,111.7h-10.9v-.5h1c.7,0,1.1-.2,1.1-1.2v-13.8c0-1.9-.4-2.6-2.3-2.8v-.5l9.1-2.2v19c0,1.2.3,1.3,1.3,1.5h.8v.6h-.1Z"/>
        <path class="st0" d="M269.6,111.7h-11v-.5h1.1c.7-.2,1-.5,1-1.3v-13.5c0-1.6-.8-2.3-2.1-2.3s-3.1,1.4-3.1,2.7v13c0,1.1.4,1.2,1.1,1.3h1v.6h-11v-.5l1.2-.2c.6,0,.8-.4.8-.9v-23.6c0-2.4-.7-2.6-2.3-2.9v-.5l9.1-2.2v13.3c1.4-1.7,4.1-3.6,6.7-3.6s5.4,1.7,5.4,5.2v14c0,1.1.4,1.1,1.2,1.2h.9v.7h0Z"/>
        <path class="st0" d="M245.8,106.9c-1.4,2.2-4.5,5.5-10.1,5.5-9.7,0-14.9-5.7-14.9-14.5s7.1-15.3,14.8-15.3,6,1.3,7.5,1.3,1.2,0,1.7-.3v7c.1,0-.8,0-.8,0l-2.7-5c-1.1-.9-2.7-1.4-5.3-1.4-4.8,0-7.6,5.4-7.6,12.6s3.8,12.7,8.6,12.7,7-2.1,8.1-3.3l.7.7h0Z"/>
        <path class="st0" d="M214.6,111.7h-11v-.5h1.1c.7-.2,1-.5,1-1.3v-13.5c0-1.6-.8-2.3-2.1-2.3s-3.1,1.4-3.1,2.7v13c0,1.1.4,1.2,1.1,1.3h1v.6h-11v-.5l1.3-.2c.6,0,.8-.4.8-.9v-23.6c0-2.4-.7-2.6-2.3-2.9v-.5l9.1-2.2v13.3c1.4-1.7,4.1-3.6,6.7-3.6s5.4,1.7,5.4,5.2v14c0,1.1.4,1.1,1.2,1.2h.9v.7h0Z"/>
        <path class="st0" d="M192.8,108.2c-1.1,1.9-3.6,3.9-7.4,3.9s-5.5-2.5-5.5-5.1v-14h-2.5v-.5l8.9-7.1h.5v5.9h5.1l-.6,1.7h-4.5v13.4c0,1.8,1,2.6,2.3,2.6s2.5-.8,3.4-1.5l.3.7Z"/>
        <path class="st0" d="M177.9,111.1l-8.8.8v-3.4c-1.4,1.6-4.1,3.6-6.8,3.6s-5.3-2.3-5.3-5.3v-11c0-1.9-.7-2.5-2.3-2.7v-.5l9.1-2.2v15.3c0,1.6.6,2.5,2.1,2.5s1.4-.2,2.1-.6c.9-.6,1-1,1-2.1v-9.7c0-1.9-.6-2.4-2.3-2.7v-.5l9.1-2.2v18.4c0,1.4,1.1,1.5,2.1,1.7v.6h0Z"/>
        <path class="st0" d="M132.9,102.5c0,5.9-4.8,9.7-11.5,9.7s-6.8-1-8.6-2.3v-6.5h.8l2.5,5.4c1.5.9,3,1.8,5.6,1.8s5.4-2.3,5.4-4.9-1.8-4.2-6.1-5.6c-5.4-1.7-8.4-4.1-8.4-8.8s5-8.7,10.6-8.7,6,1.5,6.8,1.5.8,0,1.1,0v6.5h-.8l-2.7-4.8c-.8-.9-3-1.3-4.7-1.3-3,0-5.2,1.7-5.2,4.1s1.6,3.6,6.6,5.2c5.9,1.9,8.6,4.2,8.6,8.8h0Z"/>
        <path class="st0" d="M326.6,109.3c-.5.9-2.5,2.8-5.5,2.8s-4.1-1.6-4.4-3.4c-1.2,1.8-2.8,3.4-6.3,3.4s-5.6-2.1-5.6-5.1,1.8-4.8,6.5-6.6c3.1-1.2,5.2-1.6,5.2-4.9s-1.1-3.8-2.5-3.8-3,1.2-3.2,1.5c.3.2,1.6.7,1.6,2.5s-1.5,2.9-3.3,2.9-2.8-1.5-2.8-3.1c0-2.8,3.8-5,9.6-5s7.3,2.3,7.3,6.3v10.7c0,1.6.2,2.3,1.2,2.3s1.2-.4,1.7-.9l.5.4h0ZM316.5,106.3v-7.1c-1.9,2.3-5,2.4-5,7.1s.8,2.9,2.3,2.9,2.7-1.7,2.7-2.9Z"/>
        <path class="st0" d="M154.7,101.4c0,6.3-4.5,10.7-10.2,10.7s-10.2-4.4-10.2-10.8,4.6-10.8,10.2-10.8,10.2,4.5,10.2,10.9ZM147.8,101.4c0-7.3-.7-9.8-3.2-9.8s-3.2,2.5-3.2,9.7.6,9.7,3.2,9.7,3.2-2.8,3.2-9.6Z"/>
        <path class="st0" d="M327.6,111.7"/>
      </g>
      <g>
        <path class="st0" d="M327.7,111.7"/>
        <path class="st0" d="M563.6,108.2c-1.1,1.9-3.5,4-7.4,4s-5.5-2.5-5.5-5.1v-14.1h-2.5v-.5l8.9-7.1h.5v5.9h5.1l-.6,1.7h-4.5v13.5c0,1.8,1,2.5,2.3,2.5s2.2-.7,3.2-1.5l.5.7Z"/>
        <path class="st0" d="M548.2,104.8c0,4.5-4,7.3-9,7.3s-6.2-1.2-7.1-1.6v-5.4h.5l2.4,4.5c1,.7,2.8,1.3,4.3,1.3,2.4,0,4-1.2,4-3.2s-2.7-2.9-5.5-3.8c-3.1-1.1-5.9-2.8-5.9-6.4s3.9-6.9,8.3-6.9,5.4,1.4,6.4,1.1v5.2h-.5l-2.4-3.9c-.8-.6-2.1-1.1-3.5-1.1-2.8,0-4.1,1-4.1,2.7s2.6,2.6,5.5,3.7c3.6,1.1,6.6,2.5,6.6,6.5Z"/>
        <path class="st0" d="M460.3,111.7h-11v-.5h1c.7-.2,1-.3,1-1.2v-13.7c0-1.3-.7-2.4-2.1-2.4s-3.2,1.5-3.2,3v12.8c0,1.1.3,1.2,1.1,1.3h1v.6h-10.7v-.5l1-.2c.5,0,.9,0,.9-1.2v-13.6c0-1.9-.4-2.5-2.3-2.8v-.5l9-2.2v3.6c1.7-1.6,3.8-3.6,6.8-3.6s5.4,2.2,5.4,5.2v14c0,1,.4,1.1,1.1,1.2h.9v.7h.1Z"/>
        <path class="st0" d="M434.9,85.7c0,1.9-1.6,3.5-3.7,3.5s-3.6-1.5-3.6-3.5,1.5-3.5,3.6-3.5,3.7,1.6,3.7,3.5Z"/>
        <path class="st0" d="M436.8,111.7h-10.9v-.5h1c.7,0,1.1-.2,1.1-1.2v-13.8c0-1.9-.5-2.6-2.3-2.8v-.5l9.1-2.2v19c0,1.3.3,1.4,1.3,1.5h.8v.6h-.1Z"/>
        <path class="st0" d="M425.3,111.7h-11v-.5h1c.7-.2,1-.3,1-1.2v-13.7c0-1.3-.7-2.2-2.1-2.2s-3.2,1.4-3.2,2.8v12.8c0,1.1.3,1.2,1.1,1.3h1v.6h-10.7v-.5l1-.2c.5,0,.9,0,.9-1.2v-13.6c0-1.9-.4-2.6-2.3-2.8v-.5l9-2.2v3.6c1.7-1.6,3.8-3.6,6.8-3.6s5.4,2.2,5.4,5.2v14c0,1,.4,1.1,1.1,1.2h1v.7h0Z"/>
        <path class="st0" d="M402.3,93.5c0,1.9-1.1,3.2-3.1,3.2s-2.4-.9-2.4-2.1.1-.9.4-1.3c-1,0-3.3,1.6-3.3,3.3v13.2c0,1,.4,1.2,1.2,1.3h1.1v.6h-11.2v-.5h.9c.9-.2,1.2-.3,1.2-1.5v-13.8c0-1.9-.7-2.4-2.3-2.6v-.5l9-2.2v3.3c1.5-2,3.6-3.3,5.5-3.3s3,1.1,3,2.9h0Z"/>
        <path class="st0" d="M365.1,111.7h-13.5v-.5l1.6-.2c1.2,0,1.5-.3,1.5-1.6v-.5l-.5-19.6h-.1l-8.2,22.7h-1.3l-8-22.5h-.1l-.3,17.7v1.1c0,2.4.6,2.7,2.5,3v.5h-7.3v-.5c1.9-.4,2.9-1.2,2.9-4.1l.6-20v-.8c0-1.2-.4-2.3-1.9-2.4,0,0-.8,0-1.3,0v-.7h10.1l6,18.1h.1l6.6-18.1h8.9v.5c-1.6,0-2.4.6-2.4,1.7v1.7l.8,22.2c0,1.2.5,1.6,1.7,1.7l1.6.2v.5h0Z"/>
        <path class="st0" d="M530.3,101.4c0,6.3-4.6,10.7-10.2,10.7s-10.2-4.4-10.2-10.8,4.6-10.8,10.2-10.8,10.2,4.6,10.2,10.9ZM523.3,101.4c0-7.3-.7-9.8-3.2-9.8s-3.2,2.5-3.2,9.7.6,9.7,3.2,9.7,3.2-2.8,3.2-9.6Z"/>
        <path class="st0" d="M511.5,91c0,5.2-4.9,8.1-11.4,8.1s-1.5,0-2.7,0v10.4c0,.9.4,1.4,2.1,1.6h1.2v.7h-13.4v-.6l1.7-.2c1.1,0,1.4-.4,1.4-1.4v-23.4c0-1.7-.9-2-3.1-2.3v-.6h11.6c8.1,0,12.6,1.9,12.6,7.8h0ZM504.1,90.9c0-4.7-1.7-6.6-4.9-6.6s-1.4,0-1.9.2v13.3c.3,0,.6,0,1.8,0,3.3,0,5-1.8,5-7Z"/>
        <path class="st0" d="M481.5,91.1l-1.3,2.5-3.4-.2c1.1,1,2,2.4,2,4.5,0,4.4-4.1,7.4-9.1,7.4s-2.5-.2-3.5-.4c-.2.3-.3.7-.3,1.1s1,.9,2.1,1.1l5.9,1.1c5.2,1,7.4,2.4,7.4,5.7s-5.7,7-11.8,7-10.5-1-10.5-4.1,2.8-3.7,5.2-4.3c-1.9-.8-2.5-2.4-2.5-3.5,0-2.2,1.7-3.3,3.4-4.5-2.8-1.2-4.4-3.5-4.4-6.5,0-4.4,4.1-7.5,9.1-7.5s3.2.4,4.1.8l7.6-.2h0ZM472.1,98c0-4.7-.7-6.4-2.5-6.4s-2.4,1.7-2.4,6.4.6,6.2,2.4,6.2,2.5-1.6,2.5-6.2ZM475.7,116.7c0-1.5-1.2-2-4.5-2.6l-5.6-1.1c-.9.8-1.9,1.4-1.9,3.5s2.3,3.4,5.9,3.4,6.1-1.6,6.1-3.2Z"/>
        <path class="st0" d="M384.5,101.4c0,6.3-4.6,10.7-10.2,10.7s-10.2-4.4-10.2-10.8,4.6-10.8,10.2-10.8,10.2,4.6,10.2,10.9ZM377.5,101.4c0-7.3-.7-9.8-3.2-9.8s-3.2,2.5-3.2,9.7.6,9.7,3.2,9.7,3.2-2.8,3.2-9.6Z"/>
      </g>
    </g>
    <g>
      <rect class="st0" x="41.4" y="79.4" width="21.3" height="34.4"/>
      <rect class="st0" x="67.6" y="79.4" width="21.3" height="34.4"/>
    </g>
  </g>
</svg>