<?xml version="1.0" encoding="UTF-8"?>
<svg id="Layer_1" xmlns="http://www.w3.org/2000/svg" version="1.1" viewBox="0 0 500 200">
  <!-- Generator: Adobe Illustrator 29.8.2, SVG Export Plug-In . SVG Version: 2.1.1 Build 3)  -->
  <defs>
    <style>
      .st0 {
        fill: #fff;
      }
    </style>
  </defs>
  <path class="st0" d="M148.2,85.8l-18.8-7.4c-.7-.2-.9-.2-1.6,0l-18.8,7.4c-.8.3-.9.6-.9,1.4v25.2c0,.8.1,1,.9,1.4l18.8,7.7h0c.4.1.6.2.9.2s.5,0,.8-.2l18.8-7.7c.8-.3.9-.5.9-1.4v-25.2c0-.8-.2-1-.9-1.4ZM144.4,112.5l-15.8,6.3-15.8-6.3,15.8-5.7,15.8,5.7ZM112.8,87.1l15.8-6,15.8,6-15.8,5.7-15.8-5.7ZM134.6,104.5c.3,0,.5-.4.5-.8v-7.9c0-.3-.2-.7-.5-.8l-2.1-.9,14-5.2v21.4l-14-5.2,2.1-.9ZM132.3,97.3v5.2l-3.8,1.5-3.7-1.5v-5.2l3.7-1.5,3.8,1.5ZM122.6,95.2c-.3,0-.5.4-.5.8v7.8c0,.3.2.7.5.8l2.1.9-14,5.2v-21.4l14,5.2-2.1.8Z"/>
  <path class="st0" d="M170.1,91.6h-9.5v-5.3h25.6v5.3h-9.5v21.8h-6.5v-21.8h0ZM188.6,86.4h6.5v10.2h12.4v-10.2h6.5v27.1h-6.5v-11.7h-12.4v11.6h-6.5v-27ZM239.1,102h-15.1v6.2h16.2v5.3h-22.9v-27.1h22.9v5.3h-16.2v5.1h15.1v5.3ZM253.4,86.4h15c6.5,0,9.3,3.1,9.3,7s-1.9,5-4.1,5.8c2.6.8,5,2.8,5,6.3,0,5.1-3.9,8-10.5,8h-14.7v-27.1h0ZM266.9,97c2.9,0,3.9-1.2,3.9-2.8s-1.6-2.9-3.8-2.9h-7.2v5.7h7.1ZM259.8,108.6h7.4c2.6,0,4.4-.8,4.4-3.4s-1.5-3.3-4.3-3.3h-7.5v6.7h0ZM281.5,86.4h6.5v21.8h14.3v5.3h-20.8v-27.1ZM332.2,99.8c0,7.5-5,14.2-14.8,14.2s-14.4-6.3-14.4-14.2,5.6-14,14.7-14,14.5,6.7,14.5,14ZM309.9,99.8c0,5.2,2.6,9.1,7.9,9.1s7.6-4.6,7.6-9-2.3-9-7.8-9c-5.3,0-7.6,4.3-7.6,8.9ZM361.7,104.9c-1.2,4.8-5,9.1-13.5,9.1s-14.3-6.7-14.3-14.1,5.2-14.1,14.7-14.1,12.4,4.6,13.2,9.1h-6.7c-.5-1.6-2-4.1-6.7-4.1s-7.7,3.8-7.7,8.8,2.4,9.3,7.8,9.3,5.5-1.5,6.6-4.1h6.7s0,0,0,0ZM363.9,86.4h6.6v11.8c3.9-3.6,7.6-7.1,12.8-11.8h8l-12.7,11.6,13.4,15.4h-8.2l-9.8-11.8-3.5,2.9v8.9h-6.5v-27.1h0Z"/>
</svg>