<?xml version="1.0" encoding="UTF-8"?>
<svg id="Layer_1" xmlns="http://www.w3.org/2000/svg" version="1.1" viewBox="0 0 500 200">
  <!-- Generator: Adobe Illustrator 29.8.2, SVG Export Plug-In . SVG Version: 2.1.1 Build 3)  -->
  <defs>
    <style>
      .st0 {
        fill: #fff;
      }
    </style>
  </defs>
  <g id="layer1">
    <path id="path13406" class="st0" d="M422.5,110.2c-1,0-1.8.8-1.8,1.9s.8,1.9,1.8,1.9,1.8-.8,1.8-1.9-.8-1.9-1.8-1.9M358.7,113.8h8.1v-.7l-.9-.2c-.8-.2-1.2-.6-1.2-1.8v-10.9h1.9c1.2,0,1.8.3,1.8,2.7l.2,5.1c.2,4.6,1.5,5.9,3.7,5.9s2.9-1.6,2.9-3.8v-.9h-.8v.7c0,1.5-.2,2.5-.8,2.5s-.6-.4-.7-2.2l-.2-3.5c-.3-4.7-.9-6.4-4.4-7,3.3-.9,5.4-3.3,5.4-6.8s-3.6-6.7-7-6.7h-13.7v.7l.8.2c1.4.3,1.5,1.1,1.5,4.3v15.9c0,3.6-1,5.3-3.3,5.3s-3.2-1-3.2-4.9v-18.9c0-1.1.4-1.4,1.2-1.6l1.1-.2v-.7h-8.4v.7l.9.2c.8.2,1.1.6,1.1,1.7v18.6c0,4.2,2.4,6.5,6.2,6.5s5.6-2.3,5.6-6.6v-17.4c0-2.2.4-2.9,2.2-2.9s2,.5,2,1.8v22.3c0,1.1-.4,1.5-1.2,1.7l-.9.2v.7h0ZM412.4,88.8c0-1.1.4-1.5,1.2-1.6l1.1-.2v-.8h-8.3v.7l.9.2c.8.2,1.2.6,1.2,1.7v22.4c0,1.1-.4,1.7-1.7,1.7s-1.6-.5-2.2-2.8l-5.1-24h-1.6l-4.9,23.2c-.6,2.6-.8,3.2-1.9,3.5l-.7.2v.7h5.7v-.7l-.8-.2c-1.2-.2-1.5-.9-.9-3.9l2.9-14.9,3.2,15.7c.5,2.3.4,2.7-1.3,3l-.8.2v.7h21.2v-9.1h-.8c-.4,4.2-1.2,8.2-4.6,8.2h-1.6v-24h0ZM399.9,106.3v-1.1h-5.4l-.2,1.1h5.6ZM377.6,89.3v19.1c0,2.9,0,4.2-1.4,4.5h-.7v.8h5.9v-.7c-2.6-.4-2.6-1.2-2.6-4.4v-18.2l-1-.9,9.8,24.2h1.7v-22.3c0-3.3,0-4,1.6-4.4l.6-.2v-.7h-6v.7l.7.2c2,.4,2,1.2,2,4.2v13.9h.4c0-.1-7.5-19-7.5-19h-5.7v.7l.6.2c.6.2,1,.9,1.7,2.2M364.7,87.2h1.6c1.6,0,3.1,1,3.1,6.2s-1.1,5.8-3.4,5.8h-1.3v-12.1ZM338.1,99.7c0,11.6-1,13.2-3,13.2s-3-1.6-3-13.1,1-12.7,3-12.7,3,1.6,3,12.7M342.4,100c0-7.7-2.4-14-7.4-14s-7.4,6.3-7.4,14,2.4,14,7.4,14,7.4-6.3,7.4-14M325.3,88.8c0-1.1.3-1.5,1.1-1.7l.9-.2v-.7h-8.3v.7l1,.2c.8.2,1.2.5,1.2,1.6v19.3c0,2.7-.2,4.8-2.2,4.8s-2.2-1-2.2-1.7c.1-1.2,2.2-1.2,2.4-3.2.1-1.4-.8-2-1.6-2.2-1.2-.2-2.8.9-2.8,3,0,2.7,1.7,5.1,4.7,5.1s5.9-2.2,5.9-6.5v-18.6h0ZM191.5,88.8c0-1.1.4-1.5,1.2-1.6l1.1-.2v-.8h-8.3v.7l.9.2c.8.2,1.2.6,1.2,1.7v22.4c0,1.1-.4,1.7-1.7,1.7s-1.7-.5-2.2-2.8l-5.1-24h-1.6l-4.9,23.2c-.6,2.6-.8,3.2-1.9,3.5l-.7.2v.7h5.7v-.7l-.8-.2c-1.2-.2-1.5-.9-.9-3.9l2.9-14.9,3.2,15.8c.4,2.3.4,2.7-1.3,3l-.8.2v.7h21.3v-9.1h-.8c-.4,4.2-1.2,8.2-4.6,8.2h-1.6v-24ZM303,87.2h.9c2.5,0,3.3,4,3.6,8.2h.8v-9.1h-14.5v9.1h.8c.3-4.2,1.1-8.2,3.6-8.2h.9v24c0,1.1-.4,1.5-1.2,1.7l-1,.2v.7h8.7v-.7l-1.2-.3c-.8-.2-1.2-.4-1.2-1.7v-24h0ZM284.7,99.9h1.2c1.8,0,2.3.8,2.7,5.1h.8v-11.1h-.8c-.4,3.5-.9,5-2.6,5h-1.3s0-11.8,0-11.8h2.8c3.1,0,3.8,3.9,4.2,8.2h.8v-9.1h-13.8v.7l.9.2c.9.2,1.2.8,1.2,1.7v22.2c0,1.1-.4,1.5-1.2,1.7l-.9.2v.7h14.2v-9.1h-.8c-.5,4.2-1,8.2-4.6,8.2h-2.8v-12.9h0ZM269.6,99.9h1.2c1.8,0,2.3.8,2.7,5.1h.8v-11.1h-.8c-.4,3.5-.9,5-2.6,5h-1.3s0-11.8,0-11.8h2.8c3.1,0,3.8,4,4.2,8.2h.8v-9.1h-14.2v.7l1.3.2c.9.2,1.2.8,1.2,1.7v22.2c0,1.1-.4,1.5-1.2,1.7l-.9.2v.7h14.2v-9.1h-.8c-.5,4.2-1,8.2-4.6,8.2h-2.8v-12.9h0ZM253.1,87.2h1.2c1.6,0,3.1,1,3.1,6.2s-1.1,5.8-3.4,5.8h-.9v-12.1ZM247.1,113.8h8.1v-.7l-.9-.2c-.8-.2-1.2-.6-1.2-1.8v-10.9h1.5c1.2,0,1.8.5,1.8,2.7l.2,5.1c.2,4.6,1.5,5.9,3.7,5.9s2.9-1.6,2.9-3.8v-.9h-.8v.7c0,1.5-.2,2.5-.8,2.5s-.6-.4-.7-2.2l-.2-3.5c-.3-4.8-1-6.4-4.4-7,3.3-.9,5.4-3.3,5.4-6.8s-3.6-6.7-7-6.7h-7.7v.7l.9.2c.8.2,1.2.6,1.2,1.7v22.3c0,1.1-.4,1.5-1.2,1.7l-.9.2v.7h0ZM241,87.2h.9c2.5,0,3.3,4,3.6,8.2h.8v-9.1h-14.5v9.1h.8c.3-4.2,1.1-8.2,3.6-8.2h.9v24c0,1.1-.4,1.5-1.2,1.7l-1,.2v.7h8.5v-.7l-1-.2c-1-.2-1.2-1-1.2-1.7v-24ZM231.7,106.6c0-8.2-9-10.4-9-16.3s.5-3.2,2.5-3.2c2.9,0,4,3.7,4.4,8.3h.8v-9.1h-.5c-.2.9-.6,1.3-1.1,1.3-.9,0-1.4-1.4-3.6-1.4-3.4,0-5.7,2.8-5.7,6.6,0,6.8,9,9.6,9,15.9s-1.3,4.4-3.1,4.4c-2.7,0-4.4-3.2-4.9-8.3h-.8v9.1h.5c.4-1.3.9-1.4,1.4-1.4.8,0,1.6,1.6,3.9,1.6,3.6,0,6.3-3.1,6.3-7.3M205.5,88.8c0-1.1.4-1.5,1.2-1.6l1.1-.2v-.8h-8.3v.7l.9.2c.8.2,1.2.6,1.2,1.7v22.3c0,1.1-.4,1.5-1.2,1.7l-.9.2v.7h13.1v-9.1h-.8c-.4,4.2-1.2,8.2-4.6,8.2h-1.6v-24ZM178.9,106.3v-1.1h-5.4l-.2,1.1h5.6ZM155.8,113.9h1.6l3.7-19.7h-.6l4.1,19.7h1.4l4.9-23.2c.5-2.4.8-3.3,1.8-3.5l.8-.2v-.7h-5.6v.7l.8.2c1.2.2,1.5,1,.9,3.9l-3.2,15.6h.5l-3.2-16.4c-.3-1.6-.5-2.8.8-3.1l.9-.2v-.7h-7.7v.7h.5c.8.3.9.8,1.2,2.3l1.2,6-.2-3.6-2.8,14.6h.4l-3.2-16c-.4-1.6-.5-2.9.8-3.1h.6v-.8h-7.9v.7l.8.2c.7.2,1.1.6,1.6,2.8l5.1,24h0ZM134.4,99.9h1.2c1.8,0,2.3.8,2.7,5.1h.8v-11.1h-.8c-.4,3.5-.9,5-2.6,5h-1.3s0-11.8,0-11.8h2.8c3.1,0,3.8,4,4.2,8.2h.8v-9.1h-13.8v.7l.9.2c.9.2,1.2.8,1.2,1.7v22.2c0,1.1-.4,1.5-1.2,1.7l-.9.2v.7h14.2v-9.1h-.8c-.5,4.2-1,8.2-4.6,8.2h-2.8v-12.9h0ZM109.2,113.8h8.2v-.7l-.9-.2c-.7-.2-1.2-.6-1.2-1.8v-10.9h6v10.9c0,1.1-.5,1.6-1.2,1.8l-.9.2v.7h8.2v-.7l-.9-.2c-.8-.2-1.2-.6-1.2-1.8v-22.2c0-1.1.4-1.5,1.2-1.7l.9-.2v-.7h-8.2v.7l.9.2c.7.2,1.2.5,1.2,1.6v10.3h-6v-10.3c0-1.1.4-1.4,1.2-1.6l.9-.2v-.7h-8.2v.7l.9.2c.8.2,1.2.6,1.2,1.7v22.3c0,1.1-.4,1.5-1.2,1.7l-.9.2v.7h0ZM103.1,87.2h.9c2.5,0,3.3,4,3.6,8.2h.8v-9.1h-14.5v9.1h.8c.3-4.2,1.1-8.2,3.6-8.2h.9v24c0,1.1-.4,1.5-1.2,1.7l-1,.2v.7h8.7v-.7l-1.2-.3c-.8-.2-1.2-.4-1.2-1.7v-24h0Z"/>
  </g>
</svg>