<?xml version="1.0" encoding="UTF-8"?>
<svg id="Layer_1" xmlns="http://www.w3.org/2000/svg" version="1.1" viewBox="0 0 500 200">
  <!-- Generator: Adobe Illustrator 29.8.2, SVG Export Plug-In . SVG Version: 2.1.1 Build 3)  -->
  <defs>
    <style>
      .st0 {
        fill: #fff;
      }
    </style>
  </defs>
  <g id="layer1">
    <g>
      <path id="path1139" class="st0" d="M92.2,87.9h10.1l5.9,15,6-15h9.9l-14.8,35.7h-9.9l4.1-9.5-11.1-26.2Z"/>
      <path id="path1141" class="st0" d="M134.3,87.3c-7.6,0-12.4,6.8-12.4,13.6s5.3,13.7,12.2,13.7,7.2-3.2,7.2-3.2v2.5h8.8v-26h-8.8v2.4s-2.2-3-7-3ZM136.2,95.6c3.5,0,5.3,2.8,5.3,5.3s-1.9,5.3-5.3,5.3-5.3-2.3-5.3-5.2,2-5.4,5.3-5.4Z"/>
      <path id="path1145" class="st0" d="M153.2,113.9v-37.5h9.2v13.9s2.2-3,6.8-3,8.9,4.2,8.9,10.2v16.4h-9.1v-14.2c0-2-1-4-3.1-4s-3.4,2-3.4,4v14.2h-9.2Z"/>
      <path id="path1147" class="st0" d="M193.8,87.3c-8.7,0-13.9,6.6-13.9,13.7s6.3,13.6,13.9,13.6,13.9-5.3,13.9-13.4-6.8-13.8-13.9-13.8ZM193.9,95.7c3.1,0,5.2,2.5,5.2,5.3s-2,5.2-5.2,5.2-5.2-2.4-5.2-5.2c0-2.7,1.8-5.3,5.2-5.3Z"/>
      <path id="path1153" class="st0" d="M223.1,87.3c-8.7,0-13.9,6.6-13.9,13.7s6.3,13.6,13.9,13.6,13.9-5.3,13.9-13.4c0-8.9-6.8-13.8-13.9-13.8ZM223.2,95.7c3.1,0,5.2,2.5,5.2,5.3s-2,5.2-5.2,5.2-5.2-2.4-5.2-5.2c0-2.7,1.9-5.3,5.2-5.3Z"/>
      <path id="path1155" class="st0" d="M244.3,102.2c3.4,0,6.1,2.7,6.1,6.1s-2.7,6.1-6.1,6.1-6.1-2.7-6.1-6.1,2.8-6.1,6.1-6.1Z"/>
      <path id="path1157" class="st0" d="M252.4,99.9h-11l9.8-23.5h11l-9.7,23.5Z"/>
    </g>
  </g>
  <g>
    <path class="st0" d="M330.3,113.5c-.3,0-.5-.1-.8-.2-1.6-.5-3-1.4-4.1-2.5-2.2-2.1-3.4-5.1-3.7-8-.4-3.1.2-6.3,1.7-9,0-.1.1-.2.2-.3,2.7-4.4,7.7-6.4,12.4-5,1.6.5,2.9,1.3,4.2,2.8,0-.8,0-1.4,0-1.9,0-.5.2-.6.6-.6,2.5,0,5.1,0,7.6,0,.5,0,.6.2.6.7,0,7.7,0,15.5,0,23.2,0,.5-.2.7-.7.7-2.5,0-5,0-7.5,0-.6,0-.8-.2-.7-.8,0-.5,0-1,0-1.5-.3-.2-.4,0-.5.2-2.4,2.5-6.2,3.1-9.5,2.3ZM340.4,101c0-2.8-2.2-5-5-5-2.8,0-5.1,2.1-5.1,4.9,0,2.8,2.2,5,5,5,2.8,0,5.1-2.1,5.1-4.9Z"/>
    <path class="st0" d="M409.7,113.5c-6.3-1.4-9.9-6.5-9.5-13.4.3-5.1,2.8-9,7.5-11s9.5-1.7,13.6,1.6c3.8,3,4.8,7.3,4.6,12,0,.7-.5.5-.9.5h-15c-1.2,0-1.3.2-.8,1.3,1.2,2.7,5.3,3.3,7.5,1.1.6-.6,1-.6,1.7-.3,1.9.8,3.8,1.5,5.7,2.2q1,.4.3,1.2c-1.7,2.4-4.1,4-7,4.7-1.8.5-6.4.4-7.8.1ZM413.1,98.1h3.2c1,0,1.1-.1.7-1.1-.7-1.5-1.9-2.2-3.5-2.2-1.7,0-3.1.4-4.1,2-.1.2-.2.5-.3.7-.2.4,0,.6.5.6,1.2,0,2.4,0,3.6,0Z"/>
    <path class="st0" d="M389,113.4c-.4,0-.8-.2-1.2-.3-1.7-.6-3.4-1.5-4.6-2.8-4-4.1-4.7-9-2.9-14.2,1.8-5.1,5.7-7.6,10.9-8.1,2.2-.2,4.4,0,6.4.9.6.2.8.5.8,1.1,0,2.2,0,4.3,0,6.5,0,.8-.2.8-.8.5-1.6-.9-3.3-1.1-5.1-.8-2.6.5-4.2,2.5-4.1,5,0,2.4,1.8,4.2,4.4,4.6,1.7.2,3.4,0,4.9-1,.6-.4.7-.2.7.4,0,2.2,0,4.4,0,6.7,0,.9-.7,1-1.4,1.2-2.7.6-5.5.9-8.1.4Z"/>
    <path class="st0" d="M361.8,91.1c.2,0,.2,0,.3-.1,2.5-3.1,5.7-3.7,9.3-2.6s5,3.9,5.5,7.4c0,.5.1,1.1.1,1.7,0,5,0,9.9,0,14.9,0,.6-.1.8-.8.8-2.5,0-5,0-7.5,0-.7,0-.8-.2-.8-.9,0-4.1,0-8.2,0-12.2,0-.6,0-1.2-.2-1.8-.4-1.4-1.2-2.1-2.5-2.2-1.5-.1-2.5.5-3.1,1.8-.3.8-.4,1.6-.4,2.4,0,4,0,7.9,0,11.9,0,.7-.2,1-.9.9-2.4,0-4.9,0-7.4,0-.5,0-.8-.1-.8-.7,0-7.7,0-15.4,0-23.1,0-.6.2-.8.8-.8,2.5,0,5,0,7.5,0,.6,0,.8.2.8.8,0,.5,0,1.1,0,1.7Z"/>
    <path class="st0" d="M303.8,91.3c2.7-3.4,6-4.1,9.7-2.9,3.3,1,4.8,3.7,5.4,7,.1.7.2,1.5.2,2.2,0,4.9,0,9.8,0,14.7,0,.6-.1.9-.8.9-2.4,0-4.9,0-7.3,0-.7,0-1-.2-.9-.9,0-4.1,0-8.1,0-12.1s0-1.2-.2-1.8c-.4-1.3-1.2-2.1-2.5-2.2-1.4-.1-2.5.5-3.1,1.7-.4.8-.4,1.6-.4,2.4,0,4,0,8,0,12.1,0,.7-.2.9-.9.9-2.4,0-4.9,0-7.4,0-.6,0-.8-.2-.8-.8,0-7.7,0-15.4,0-23.1,0-.6.2-.8.7-.8,2.5,0,5,0,7.5,0,.6,0,.8.2.8.8-.1.5,0,1,0,1.8Z"/>
    <path class="st0" d="M273,104.6c0,2.6,0,5.2,0,7.8,0,.7-.2.9-.9.9-2.4,0-4.9,0-7.3,0-.7,0-.8-.2-.8-.9,0-5.2,0-10.3,0-15.5,0-.8-.2-1.1-1-1-.7,0-1.7.3-2.1-.2-.4-.5-.1-1.4-.1-2.1,0-1.4,0-2.8,0-4.2,0-.6.1-.8.7-.8.6,0,1.2,0,1.9,0,.5,0,.7-.2.7-.7,0-1.4.2-2.8.6-4.2,1.3-4.2,4.6-6.8,9.3-7,1.6-.1,3.2,0,4.7.5.5.2.8.4.8,1,0,2,0,4,0,6,0,.6,0,.8-.7.5-1-.4-2.1-.5-3.2-.2-1.6.4-2.7,2.1-2.5,3.7,0,.5.4.4.7.4,1.5,0,3,0,4.4,0,.6,0,.9.1.9.9,0,1.8,0,3.7,0,5.5,0,.7-.1.9-.9.9-1.5,0-2.9,0-4.3,0-.8,0-.9.3-.9.9,0,2.6,0,5.2,0,7.8Z"/>
    <path class="st0" d="M291.1,100.9c0,3.8,0,7.6,0,11.4,0,.6-.2.9-.8.9-2.5,0-5,0-7.4,0-.5,0-.8-.1-.8-.7,0-7.7,0-15.4,0-23.1,0-.6.2-.8.8-.8,2.5,0,5,0,7.5,0,.7,0,.8.3.8.8,0,3.8,0,7.6,0,11.5Z"/>
    <path class="st0" d="M291.6,81.4c0,2.7-2.3,5-5.1,4.9-2.7,0-5-2.3-5-4.9,0-2.7,2.2-5,5-5s5,2.2,5,5Z"/>
  </g>
</svg>